<?xml version="1.0" encoding="utf-8"?>
<!-- Generator: Adobe Illustrator 15.0.2, SVG Export Plug-In . SVG Version: 6.00 Build 0)  -->
<!DOCTYPE svg PUBLIC "-//W3C//DTD SVG 1.1//EN" "http://www.w3.org/Graphics/SVG/1.1/DTD/svg11.dtd">
<svg version="1.1" id="Capa_1" xmlns="http://www.w3.org/2000/svg" xmlns:xlink="http://www.w3.org/1999/xlink" x="0px" y="0px"
	 width="792px" height="612px" viewBox="0 0 792 612" enable-background="new 0 0 792 612" xml:space="preserve">
<path fill-rule="evenodd" clip-rule="evenodd" fill="#707781" d="M441.918,50c-4.357-1.663-15.643-1.663-20,0
	C428.584,50,435.252,50,441.918,50z"/>
<path fill-rule="evenodd" clip-rule="evenodd" fill="#515C66" d="M498.918,104c-11.692-7.308-23.659-14.341-37-20
	C468.365,96.553,484.568,99.349,498.918,104z"/>
<path fill-rule="evenodd" clip-rule="evenodd" fill="#192029" d="M361.918,113c-5.146,9.75,0.864,24.938,3,34
	C366.677,136.899,361.085,125.506,361.918,113z"/>
<path fill-rule="evenodd" clip-rule="evenodd" fill="#515C66" d="M511.918,117c-6.666,0-13.334,0-20,0c2.598,2.735,8.977,1.69,13,3
	c-0.012,1.322-1.753,0.914-2,2c2.492-0.508,6.033,0.033,6-3c-2,0-4,0-6,0C503.678,116.093,511.158,119.907,511.918,117z"/>
<path fill-rule="evenodd" clip-rule="evenodd" fill="#2B343F" d="M524.918,143c-7.678-1.665-22.322-1.665-30,0
	C504.918,143,514.918,143,524.918,143z"/>
<path fill-rule="evenodd" clip-rule="evenodd" fill="#515C66" d="M531.918,144c-12.67,0.664-27.996-1.329-39,1
	C505.588,144.336,520.914,146.329,531.918,144z"/>
<path fill-rule="evenodd" clip-rule="evenodd" fill="#C0B2A5" d="M469.918,173c-9.196,26.626,28.35,39.815,41,23
	c6.812-9.056,7.403-34.02-6-37C491.591,156.036,480.761,167.585,469.918,173z"/>
<path fill-rule="evenodd" clip-rule="evenodd" fill="#806B57" d="M386.918,186c-0.333,0-0.667,0-1,0c0.638,3.695-1.295,9.961,1,12
	C386.918,194,386.918,190,386.918,186z"/>
<path fill-rule="evenodd" clip-rule="evenodd" fill="#C0B2A5" d="M395.918,257c-6.122,12.6-6.938,24.697,3,35
	c5.822,6.036,18.382,12.448,28,18c15.799,9.12,38.354,24.359,41-2C430.326,308.495,414.975,278.348,395.918,257z"/>
<path fill-rule="evenodd" clip-rule="evenodd" fill="#806B57" d="M454.918,303c6.213,0.213,12.23,0.23,12-6
	C461.004,297.085,457.345,299.427,454.918,303z"/>
<path fill-rule="evenodd" clip-rule="evenodd" fill="#989B9F" d="M547.918,321c-4.387,7.28-4.594,18.739-8,27
	c3.533,3.143,2.895-6.396,9-4c0.811,0.19,0.996,1.003,2,1c2.27,1.063,0.381,6.286,1,9c4.74-5.593,7.732-12.935,8-23
	c-3.998-0.002-6.002-1.998-10-2C548.873,326.712,549.283,322.968,547.918,321z"/>
<path fill-rule="evenodd" clip-rule="evenodd" fill="#989B9F" d="M498.918,330c-4.528,3.179,1.398,12.369,5,14
	C502.747,338.838,502.061,333.191,498.918,330z"/>
<path fill-rule="evenodd" clip-rule="evenodd" fill="#989B9F" d="M358.918,392c7.312-4.688,14.965-9.035,23-13
	c10.873,2.106,18.273,19.21,30,11c-8.053-16.445-21.857-28.136-35-41c-4.681-4.581-9.047-14.733-17-12
	c-1.021,8.806,6.317,17.596,9,26c-7.651,6.016-17.168,10.166-26,15C346.283,384.635,352.071,388.847,358.918,392z"/>
<path fill-rule="evenodd" clip-rule="evenodd" fill="#2B343F" d="M333.918,344c-1.657,1.4-1.657,9.6,0,11
	C333.918,351.333,333.918,347.667,333.918,344z"/>
<path fill-rule="evenodd" clip-rule="evenodd" fill="#2E8EC7" stroke="#2E8EC7" stroke-miterlimit="10" d="M462.918,354
	c-1.891,0.224-2.206-1.127-4-1c-0.225,0.776-0.027,1.973-1,2c0.584,5.082,3.609,7.724,5,12c2.84,1.857,8.463,6.164,6,10
	c0,0.667,0,1.333,0,2c-1.721,0.054-2.563-0.77-3-2c-2.357-0.309-1.86-3.473-5-3c1.774,1.893,0.729,6.604,1,10
	c0.692,7.974,2.851,14.482,3,23c1.486,1.514,1.611,4.389,2,7c9.285,0.381,5.958,13.375,13,16c3.582,0.582,3.041-2.96,3-6
	c3.159-1.816,3.928,3.898,9,1c0.156-1.177-0.172-2.839,1-3c0.022-2.355-1.723-2.944-1-6c-0.532-2.802-1.468-5.198-2-8
	c0-0.333,0-0.667,0-1c-1.483-0.85-2.15-2.517-2-5c-1.852-2.815-2.746-6.587-4-10c-0.314-1.352-1.424-1.91-1-4
	c-3.067-4.6-4.725-10.608-7-16c-2.136-0.625-0.938-6.155,0-7c0-0.333,0-0.667,0-1c0.004-1.003-0.811-1.19-1-2
	c-2.263-1.07-4.397-2.27-6-4C466.816,356.768,465.02,355.232,462.918,354z"/>
<path fill-rule="evenodd" clip-rule="evenodd" fill="#707781" d="M283.918,353c-2.558-0.044-1.22,0.743-1,2
	c12.718,7.948,22.102,19.232,30,32C310.844,372.071,297.375,359.879,283.918,353z"/>
<path fill-rule="evenodd" clip-rule="evenodd" fill="#989B9F" d="M565.918,354c-4.703,3.63-8.145,8.521-11,14
	c3.376,1.624,4.467,5.533,10,5C564.139,365.554,566.325,361.074,565.918,354z"/>
<path fill-rule="evenodd" clip-rule="evenodd" fill="#707781" d="M455.918,398c-0.656-6.677,1.32-15.986-1-21c0,4.333,0,8.667,0,13
	c0,2.667,0,5.333,0,8C455.252,398,455.584,398,455.918,398z"/>
<path fill-rule="evenodd" clip-rule="evenodd" fill="#FFFFFF" d="M447.918,414c1.812-7.824,1.463-22.12,0-30
	c-6.74,1.926-14.695,2.638-19,7C434.264,399.654,441.999,405.919,447.918,414z"/>
<path fill-rule="evenodd" clip-rule="evenodd" fill="#C0B2A5" d="M454.918,390c-0.334,0-0.666,0-1,0c0.645,4.355-1.305,11.305,1,14
	c0-2,0-4,0-6C454.918,395.333,454.918,392.667,454.918,390z"/>
<path fill-rule="evenodd" clip-rule="evenodd" fill="#989B9F" d="M455.918,398c-0.334,0-0.666,0-1,0c0,2,0,4,0,6s0,4,0,6
	c0.334,0,0.666,0,1,0C455.918,406,455.918,402,455.918,398z"/>
<path fill-rule="evenodd" clip-rule="evenodd" fill="#2B343F" d="M330.918,413c0.083-1.584-0.48-3.814,1-4
	c0.729-2.729-1.987-2.013-2-4c-2.228,1.022,1.308,4.598,0,8C330.251,413,330.585,413,330.918,413z"/>
<path fill-rule="evenodd" clip-rule="evenodd" fill="#192029" d="M332.918,412c-0.055-1.278-1.282-1.385-1-3
	c-1.48,0.186-0.917,2.416-1,4c0.841,2.492,1.309,5.357,1,9c1.471,32.53,5.202,62.798,4,98c11.424-0.886,16.523,5.176,29,2
	c-4.98-17.824-6.68-35.717-17-48c-1.599-1.903-4.51-3.025-6-5C332.28,456.228,345.359,426.951,332.918,412z"/>
<path fill-rule="evenodd" clip-rule="evenodd" fill="#C0B2A5" d="M455.918,410c-0.334,0-0.666,0-1,0c-2.416,1.585-2.649,5.351-4,8
	c0.677,2.323,3.323,2.677,4,5c2.27-1.063,0.381-6.286,1-9C455.918,412.667,455.918,411.333,455.918,410z"/>
<path fill-rule="evenodd" clip-rule="evenodd" fill="#707781" d="M324.918,413c-1.021,8.003-6.633,16.056,0,21
	C330.078,429.806,326.995,418.538,324.918,413z"/>
<path fill-rule="evenodd" clip-rule="evenodd" fill="#707781" d="M495.918,414c-2.209,0.125-0.425,4.242-1,6
	c-2.059-0.274-0.941-3.726-3-4c-0.723,3.056,1.022,3.645,1,6c0.055,1.278,1.281,1.385,1,3c1.003,0.003,1.189-0.81,2-1
	c0-1.333,0-2.667,0-4C495.918,418,495.918,416,495.918,414z"/>
<path fill-rule="evenodd" clip-rule="evenodd" fill="#3C4550" d="M501.918,470c-3.837,1.145-1.234,5.751-3,7
	C501.868,480.527,500.496,471.312,501.918,470z"/>
<path fill-rule="evenodd" clip-rule="evenodd" fill="#515C66" d="M445.918,475c-5.801,2.199-14.073,1.927-19,5
	c4.254,6.657,11.685,14.646,21,13C448.215,486.037,447.021,480.563,445.918,475z"/>
<path fill-rule="evenodd" clip-rule="evenodd" fill="#E3E1DE" d="M521.918,94c-3.426-4.575-7.572-8.428-13-11
	c1.934,3.066,5.474,4.526,8,7C519.241,90.677,519.595,93.323,521.918,94z"/>
<path fill-rule="evenodd" clip-rule="evenodd" fill="#CEC9C2" d="M541.918,114c-6.25-7.084-12.916-13.75-20-20
	c-2.323-0.677-2.677-3.323-5-4c1.912,2.754,4.246,5.087,7,7C530.506,102.079,535.33,108.921,541.918,114z"/>
<path fill-rule="evenodd" clip-rule="evenodd" fill="#E3E1DE" d="M533.918,144c4.284-1.383,5.469-5.864,6-11
	c-2.365,2.968-4.25,6.417-6,10C533.918,143.333,533.918,143.667,533.918,144z"/>
<path fill-rule="evenodd" clip-rule="evenodd" fill="#C0B2A5" d="M514.918,247c-2.526,3.474-3.871,8.129-5,13
	C512.709,256.791,514.053,252.135,514.918,247z"/>
<path fill-rule="evenodd" clip-rule="evenodd" fill="#A8947F" d="M503.918,274c-2.52,1.813-2.48,6.187-5,8
	c0.025,3.375-5.255,4.451-2,8c0.666,0,1.334,0,2,0C496.906,284.229,503.848,280.807,503.918,274z"/>
<path fill-rule="evenodd" clip-rule="evenodd" fill="#707781" stroke="#707781" stroke-miterlimit="10" d="M559.918,318
	c-2.525-4.475-5.391-8.609-11-10c2.181,4.486,7.572,5.762,10,10C559.252,318,559.584,318,559.918,318z"/>
<path fill-rule="evenodd" clip-rule="evenodd" fill="#E3E1DE" d="M363.918,274c-4.598,4.402-10.066,7.934-13,14
	C355.516,283.598,360.984,280.066,363.918,274z"/>
<path fill-rule="evenodd" clip-rule="evenodd" fill="#E3E1DE" d="M377.918,257c-3.245,1.755-4.999,5.001-7,8
	C374.578,263.66,376.332,260.414,377.918,257z"/>
<path fill-rule="evenodd" clip-rule="evenodd" fill="#515C66" stroke="#515C66" stroke-miterlimit="10" d="M376.918,72
	c3.017-2.984,6.017-5.984,9-9C381.785,64.868,378.785,67.868,376.918,72z"/>
<path fill-rule="evenodd" clip-rule="evenodd" fill="#707781" d="M461.918,56c29.852,12.815,51.65,33.683,72,56
	c-1.428-0.239-1.687-1.647-3-2c-18.932-20.068-38.484-39.516-66-51c-5.18-2.82-12.237-3.763-19-5c-20.014-2.677-44.001-0.67-51,13
	c2.978,0.897,2.437,2.773,3,4c27.535-0.09,55.496,5.054,75,16c0.334,0,0.666,0,1,0c8.598,7.736,21.459,11.208,30,19
	c-1.334,0-2.666,0-4,0c-10.197-2.803-19.654-6.346-29-10c-5.904-2.763-12.811-4.522-19-7c-12.752-4.917-29.654-11.009-46-9
	c19.323,2.677,34.588,9.412,51,15c4.196,0.137,6.843,1.824,9,4c-23.999-8.001-49.125-14.875-75-21c9.664-2.542,23.728,0.589,32-1
	c-13.769-5.982-29.975-0.104-44-1c7.772-11.561,20.756-17.911,35-23c-1.333,0-2.667,0-4,0c1.836-2.164,5.896-2.105,10-2
	c7.666,0,15.334,0,23,0c8.693,0.307,16.331,1.669,22,5C463.918,56,462.918,56,461.918,56z M498.918,104
	c-11.692-7.308-23.659-14.341-37-20C468.365,96.553,484.568,99.349,498.918,104z"/>
<path fill-rule="evenodd" clip-rule="evenodd" fill="#989B9F" d="M456.918,95c-1.632-2.368-5.871-2.129-8-4
	c-4.195-0.805-6.484-3.515-11-4c2.145-1.753,8.855,0.435,11,2c1,0,2,0,3,0c-12.752-4.917-29.654-11.009-46-9
	C425.241,82.677,440.506,89.412,456.918,95z"/>
<path fill-rule="evenodd" clip-rule="evenodd" fill="#989B9F" d="M505.918,108c0.666,0,1.334,0,2,0
	c-9.486-8.847-22.551-14.116-34-21c8.598,7.736,21.459,11.208,30,19c-1.334,0-2.666,0-4,0
	C500.928,107.656,504.165,107.086,505.918,108z"/>
<path fill-rule="evenodd" clip-rule="evenodd" fill="#989B9F" d="M472.918,87c-8.501-6.833-20.666-10-32-14
	c-7.364-0.303-12.104-3.23-20-3c-0.821-3.821,4.821-1.179,4-5c-3.725-1.942-10.117-1.216-11-6c2.246-5.087,9.95-4.717,17-5
	c5,0,10,0,15,0c-20.014-2.677-44.001-0.67-51,13c2.978,0.897,2.437,2.773,3,4C425.453,70.91,453.414,76.054,472.918,87z"/>
<path fill-rule="evenodd" clip-rule="evenodd" fill="#989B9F" stroke="#989B9F" stroke-miterlimit="10" d="M430.918,54
	c-7.05,0.283-14.754-0.087-17,5c0.883,4.784,7.275,4.058,11,6c0.821,3.821-4.821,1.179-4,5c7.896-0.23,12.636,2.697,20,3
	c-2.375-1.625-6.058-1.942-9-3c0.275-2.059,3.725-0.941,4-3c-2.01-5.323-11.311-3.356-12-10C423.521,53.27,430.164,56.58,430.918,54
	z"/>
<path fill-rule="evenodd" clip-rule="evenodd" fill="#515C66" stroke="#515C66" stroke-miterlimit="10" d="M465.918,99
	c-23.999-8.001-49.125-14.875-75-21c9.664-2.542,23.728,0.589,32-1c-13.769-5.982-29.975-0.104-44-1
	c7.772-11.561,20.756-17.911,35-23c-1.333,0-2.667,0-4,0c-10.844,0.823-17.541,5.792-25,10c-2.983,3.016-5.983,6.016-9,9
	c-3.458,13.542-19.132,14.868-21,30c4.403-4.597,5.94-12.059,12-15c-7.778,26.825,3.164,54.506,17,69c-0.026,4.359-0.596,9.262,2,11
	c3.917,0.583,2.554-4.113,5-5c3.375,0.625,0.922,7.079,3,9c3.726,1.059,3.228-2.105,5-3c0.159,5.507,3.933,7.401,8,9
	c5.446-2.553,4.539-11.461,9-15c4.285,0.048,2.666,6.001,3,10c0.333,0,0.667,0,1,0c0.662-10.662-1.646-18.354-2-28
	c-3.963,5.37-3.702,14.965-7,21c-4.377,0.044-6.171-2.496-9-4c-0.168-9.499-0.46-18.873-3-26c-2.771,5.896,0.688,18.021-2,24
	c-2.842-9.825-0.069-25.264-5-33c-1.964,8.703-0.606,20.727-3,29c-4.177-17.467,0.83-35.239-10-44c-5.348-4.326-10.305-2.509-12-8
	c-1.995-6.464,0.973-11.802,5-16c16.895,4.439,25.399,17.267,35,29c-2.599-5.401-6.542-9.458-10-14
	c15.818,8.515,18.016,30.651,38,35c9.641-2.693,18.328-6.338,30-7c-0.168-2.168,3.547-0.453,5-1c-0.431-2.236-4.928-0.405-7-1
	c-1.893,1.774-6.605,0.729-10,1c-2.484,1.516-6.069,1.931-10,2c-0.334,0-0.666,0-1,0c-20.656,4.653-22.154-18.509-33-27
	c0.404-3.929,4.396-4.271,5-8c19.609,6.391,37.578,14.422,60,18c-19.186-7.815-37.846-16.155-57-24c16.436-1.346,39.139,8.128,56,13
	c3.291,0.042,4.979,1.688,9,1c0.334,0,0.666,0,1,0c-3.428-2.905-10.834-1.832-14-5C467.918,99,466.918,99,465.918,99z"/>
<path fill-rule="evenodd" clip-rule="evenodd" fill="#3C4550" d="M418.918,172c-0.334-3.999,1.285-9.952-3-10
	c-4.461,3.539-3.554,12.447-9,15c-4.067-1.599-7.841-3.493-8-9c-1.772,0.895-1.274,4.059-5,3c-2.078-1.921,0.375-8.375-3-9
	c-2.446,0.887-1.083,5.583-5,5c-2.596-1.738-2.026-6.641-2-11c-13.836-14.494-24.778-42.175-17-69c-6.06,2.941-7.597,10.403-12,15
	c-0.846,3.821-1.687,7.646-2,12c0.772,4.772-1.563,6.436-1,11c2.324,6.676,0.34,17.66,1,26c0,1.667,0,3.333,0,5
	c1.245,9.755,2.427,19.573,5,28c-0.074-4.26-1.673-6.994-1-12c0.111-1.917,3.349,1.175,6,0c-6.83-22.594-13.668-55.942,1-75
	c-4.709,27.845,6.787,53.103,10,73c-7.263-5.738-9.261-16.739-12-27c-2.461,12.282,7.87,25.256,6,37c6.228-6.79,19.071-9.153,28-3
	c0.716,2.715-4.716-0.715-4,2c-0.184,0.851,0.39,0.943,1,1c9.974-1.641,9.031,7.635,13,12c0-0.667,0-1.333,0-2
	c-1.357-0.31-0.829-2.504-1-4c6.528-2.472,5.039-12.961,11-16c3.743,0.923,1.304,8.03,2,12
	C420.198,180.613,418.291,175.04,418.918,172z"/>
<path fill-rule="evenodd" clip-rule="evenodd" fill="#707781" stroke="#707781" stroke-miterlimit="10" d="M421.918,149
	c-1.521-2.813-4.737-3.929-4-9c-1.871-2.129-1.632-6.368-4-8c0,0.333,0,0.667,0,1s0,0.667,0,1c2.915,5.609-0.251,13.728-1,19
	c-8.641-5.692-12.626-16.041-15-28c-5.252-0.542,1.052,5.802-2,6c-2.115-4.551-2.162-11.171-5-15c-3.626,0.708-1.379,7.288-2,11
	c1.412-18.121-17.122-21.488-15-37c17.668,3.333,24.189,17.81,34,29c-0.19-0.81-1.003-0.997-1-2c0-0.333,0-0.667,0-1
	c-9.601-11.733-18.105-24.561-35-29c-4.027,4.198-6.995,9.536-5,16c1.695,5.491,6.652,3.674,12,8c10.83,8.761,5.823,26.533,10,44
	c2.394-8.273,1.036-20.297,3-29c4.931,7.736,2.158,23.175,5,33c2.688-5.979-0.771-18.104,2-24c2.54,7.127,2.832,16.501,3,26
	c2.829,1.504,4.623,4.044,9,4c3.298-6.035,3.037-15.63,7-21c0.354,9.646,2.662,17.338,2,28
	C422.899,166.648,418.937,154.352,421.918,149z"/>
<path fill-rule="evenodd" clip-rule="evenodd" fill="#3C4550" stroke="#3C4550" stroke-miterlimit="10" d="M434.918,137
	c-19.984-4.349-22.182-26.485-38-35c3.458,4.542,7.401,8.599,10,14c0,0.333,0,0.667,0,1c8.839,13.828,14.182,31.152,34,34
	c-14.232-5.101-24.241-14.425-29-29c8.127,4.873,9.999,16.001,23,16C434.918,137.667,434.918,137.333,434.918,137z"/>
<path fill-rule="evenodd" clip-rule="evenodd" fill="#3C4550" d="M452.918,129c-3.931,0.069-7.516,0.484-10,2
	C446.849,130.931,450.434,130.516,452.918,129z"/>
<path fill-rule="evenodd" clip-rule="evenodd" fill="#3C4550" d="M441.918,131c-23.828,2.054-11.203-17.994-2-23
	c14.738,1.595,26.462,6.205,40,9c4.501,2.682,18.187,0.897,18,5c1.666,0,3.334,0,5,0c0.247-1.086,1.988-0.678,2-2
	c-4.023-1.31-10.402-0.265-13-3c6.666,0,13.334,0,20,0c3,0,6,0,9,0c0.334,0,0.666,0,1,0c2.592-2.576-1.601-3.475-5-3
	c-6.752,4.926-21.053,0.504-30,1c-4.364-0.302-8.294-1.04-11-3c-0.334,0-0.666,0-1,0c-12.191-3.809-24.791-7.208-33-15
	c9.901-1.56,20.562,4.764,31,6c-16.861-4.872-39.564-14.346-56-13c19.154,7.845,37.814,16.185,57,24
	c-22.422-3.578-40.391-11.609-60-18c-0.604,3.729-4.596,4.071-5,8C419.764,112.491,421.262,135.653,441.918,131z"/>
<path fill-rule="evenodd" clip-rule="evenodd" fill="#989B9F" d="M527.918,114c2.561,0.105,4.768,0.566,6,2
	c-4.205-7.087-11.417-13.021-18-19c-18.947-17.207-40.475-36.788-73-41c3.655,12.324,20.239,12.371,31,17
	c11.109,4.779,22.684,9.604,27,20c-12.341-1.33-23.867-12.129-38-15c-2.793-0.2,7.674,4.085,11,6c13.219,7.608,28.791,18.443,42,25
	c-2.186,2.442-8.197,0.254-10-1c-1.753-0.914-4.99-0.344-6-2c-10.197-2.803-19.654-6.346-29-10c-3.246,0.58-4.652-0.681-7-1
	c1.125,1.875,3.875,2.125,5,4c3.166,3.168,10.572,2.095,14,5c2.561,0.105,4.768,0.566,6,2c0.891,0.777,2.258,1.075,4,1
	c2.182,1.151,6.469,0.198,7,3c2.318-0.319,3.84,0.161,5,1c7.525,0.475,14.553,1.448,21,3C526.584,114,527.252,114,527.918,114z"/>
<path fill-rule="evenodd" clip-rule="evenodd" fill="#515C66" d="M464.918,56c-1,0-2,0-3,0c29.852,12.815,51.65,33.683,72,56
	c0.811,0.19,0.997,1.003,2,1c8.055,5.338-2.714-2.867-5-5c-3.064-2.858-10.951-10.57-11-12c0.088,2.568,12.142,7.477,14,12
	c-2.736-4.263-7.264-6.737-10-11c-2.754-1.913-5.088-4.246-7-7c-2.526-2.474-6.066-3.934-8-7
	C495.537,72.713,483.964,60.621,464.918,56z"/>
<path fill-rule="evenodd" clip-rule="evenodd" fill="#989B9F" stroke="#989B9F" stroke-miterlimit="10" d="M530.918,110
	c-2.951-1.382-4.049-4.618-7-6c-4.085-3.248-7.752-6.915-11-11c-13.976-13.358-29.77-24.897-48-34c-5.18-2.82-12.237-3.763-19-5
	c-5,0-10,0-15,0c-0.754,2.58-7.396-0.73-7,3c0.689,6.644,9.99,4.677,12,10c-0.275,2.059-3.725,0.941-4,3
	c2.942,1.058,6.625,1.375,9,3c11.334,4,23.499,7.167,32,14c0.334,0,0.666,0,1,0c11.449,6.884,24.514,12.153,34,21
	c-0.666,0-1.334,0-2,0c1.803,1.254,7.814,3.442,10,1c-13.209-6.557-28.781-17.392-42-25c-3.326-1.915-13.793-6.2-11-6
	c14.133,2.871,25.659,13.67,38,15c-4.316-10.396-15.891-15.221-27-20c-10.761-4.629-27.345-4.676-31-17
	c32.525,4.212,54.053,23.793,73,41c6.583,5.979,13.795,11.913,18,19c-1.232-1.434-3.439-1.895-6-2c2.064,2.602,5.748,3.585,10,4
	c0.178-3.511-3.378-3.289-4-6C532.49,111.761,532.231,110.353,530.918,110z"/>
<path fill-rule="evenodd" clip-rule="evenodd" fill="#3C4550" d="M533.918,108c-1.858-4.523-13.912-9.432-14-12
	c0.049,1.43,7.936,9.142,11,12c2.286,2.133,13.055,10.338,5,5c0.727,2.198,4.693,3.322,2,6c0.91,2.715,3.504-1.019,5-1
	c-2.062-3.604-5.938-5.396-8-9C534.861,108.39,534.769,107.816,533.918,108z"/>
<path fill-rule="evenodd" clip-rule="evenodd" fill="#989B9F" d="M530.918,110c-18.932-20.068-38.484-39.516-66-51
	c18.23,9.103,34.024,20.642,48,34c4.085,3.248,7.752,6.915,11,11C526.869,105.382,527.967,108.618,530.918,110z"/>
<path fill-rule="evenodd" clip-rule="evenodd" fill="#989B9F" d="M448.918,91c-0.027-0.973-1.225-0.776-2-1
	c0.027-0.973,1.225-0.776,2-1c-2.145-1.565-8.855-3.753-11-2C442.434,87.485,444.723,90.195,448.918,91z"/>
<path fill-rule="evenodd" clip-rule="evenodd" fill="#989B9F" d="M451.918,89c-1,0-2,0-3,0c-0.775,0.224-1.973,0.027-2,1
	c0.775,0.224,1.973,0.027,2,1c2.129,1.871,6.368,1.632,8,4c4.196,0.137,6.843,1.824,9,4c1,0,2,0,3,0c-1.125-1.875-3.875-2.125-5-4
	c2.348,0.319,3.754,1.58,7,1C465.014,93.237,458.107,91.478,451.918,89z"/>
<path fill-rule="evenodd" clip-rule="evenodd" fill="#989B9F" d="M407.918,122c-5.065-8.602-10.826-16.507-19-22
	c2.92,15.417,12.692,32.639,25,42c0-1.667,0-3.333,0-5c-0.973,0.027-0.776,1.224-1,2c-8.761-8.239-16.047-17.953-19-32
	C400.779,109.806,402.845,117.407,407.918,122z"/>
<path fill-rule="evenodd" clip-rule="evenodd" fill="#989B9F" stroke="#989B9F" stroke-miterlimit="10" d="M407.918,119
	c-9.811-11.19-16.332-25.667-34-29c-2.122,15.512,16.412,18.879,15,37c0.621-3.712-1.626-10.292,2-11c2.838,3.829,2.885,10.449,5,15
	c3.052-0.198-3.252-6.542,2-6c2.374,11.959,6.359,22.308,15,28c0.749-5.272,3.915-13.391,1-19c0,1,0,2,0,3c0,1.667,0,3.333,0,5
	c-12.308-9.361-22.08-26.583-25-42c8.174,5.493,13.935,13.398,19,22c2.127,3.54,3.312,8.021,6,11c0-0.333,0-0.667,0-1
	C412.044,127.541,409.231,124.02,407.918,119z"/>
<path fill-rule="evenodd" clip-rule="evenodd" fill="#989B9F" d="M523.918,104c-3.248-4.085-6.915-7.752-11-11
	C516.166,97.085,519.833,100.752,523.918,104z"/>
<path fill-rule="evenodd" clip-rule="evenodd" fill="#2B343F" stroke="#2B343F" stroke-miterlimit="10" d="M472.918,103
	c-10.438-1.236-21.099-7.56-31-6c8.209,7.792,20.809,11.191,33,15c-5.681-3.986-15.252-4.082-19-10c9.567-1.783,19.027,4.886,30,5
	c0-0.333,0-0.667,0-1c-2.279,0.279-3.76-0.241-4-2C477.896,104.688,476.209,103.042,472.918,103z"/>
<path fill-rule="evenodd" clip-rule="evenodd" fill="#707781" d="M541.918,114c-6.588-5.079-11.412-11.921-18-17
	c2.736,4.263,7.264,6.737,10,11c0.851-0.184,0.943,0.39,1,1c2.951,1.382,4.049,4.618,7,6
	C541.918,114.667,541.918,114.333,541.918,114z"/>
<path fill-rule="evenodd" clip-rule="evenodd" fill="#2B343F" stroke="#2B343F" stroke-miterlimit="10" d="M385.918,186c0-1,0-2,0-3
	c-0.563-5.305-15.812-1.815-16,3c-4.789-0.21-3.788-6.211-10-5c-1.978,2.271,1.063,5.587,0,10c-0.333,0-0.667,0-1,0
	c0.489-3.156-1.802-3.531-1-7c-0.074-4.26-1.673-6.994-1-12c0.111-1.917,3.349,1.175,6,0c-6.83-22.594-13.668-55.942,1-75
	c-4.709,27.845,6.787,53.103,10,73c-7.263-5.738-9.261-16.739-12-27c-2.461,12.282,7.87,25.256,6,37c6.228-6.79,19.071-9.153,28-3
	c0.716,2.715-4.716-0.715-4,2c-0.61,0.057-1.184,0.149-1,1c-3.201,0.132-4.399,2.267-4,6C386.585,186,386.251,186,385.918,186z
	 M361.918,113c-5.146,9.75,0.864,24.938,3,34C366.677,136.899,361.085,125.506,361.918,113z"/>
<path fill-rule="evenodd" clip-rule="evenodd" fill="#515C66" d="M541.918,115c-2.951-1.382-4.049-4.618-7-6
	c2.062,3.604,5.938,5.396,8,9c1.76,0.241,2.279,1.721,2,4C548.27,119.226,542.328,117.323,541.918,115z"/>
<path fill-rule="evenodd" clip-rule="evenodd" fill="#2B343F" stroke="#2B343F" stroke-miterlimit="10" d="M486.918,115
	c-2.906-1.76-7.055-2.279-11-3C478.624,113.96,482.554,114.698,486.918,115z"/>
<path fill-rule="evenodd" clip-rule="evenodd" fill="#515C66" d="M440.918,151c-19.818-2.848-25.161-20.172-34-34
	c-0.003,1.003,0.81,1.19,1,2c1.313,5.02,4.126,8.541,6,13c2.368,1.632,2.129,5.871,4,8c8.938,5.938,21.419,17.155,36,11
	c-3.767-0.383-9.035,2.898-12,0C441.584,151,441.252,151,440.918,151z"/>
<path fill-rule="evenodd" clip-rule="evenodd" fill="#2B343F" stroke="#2B343F" stroke-miterlimit="10" d="M462.918,128
	c0-0.333,0-0.667,0-1c-7.074-0.407-11.553,1.78-19,1c2.212-6.122,5.757-10.91,9-16c8.975,1.692,17.186,4.147,27,5
	c-13.538-2.795-25.262-7.405-40-9c-9.203,5.006-21.828,25.054,2,23c0.334,0,0.666,0,1,0c2.484-1.516,6.069-1.931,10-2
	C456.312,128.729,461.025,129.774,462.918,128z"/>
<path fill-rule="evenodd" clip-rule="evenodd" fill="#989B9F" d="M535.918,113c-1.003,0.003-1.189-0.81-2-1
	c0.622,2.711,4.178,2.489,4,6c-4.252-0.415-7.936-1.398-10-4c-0.666,0-1.334,0-2,0c0.027,0.973,1.225,0.776,2,1
	c-0.92,1.747-3.127,2.207-6,2c-0.334,0-0.666,0-1,0c-1.544,3.915-23.338,6.008-8,6c9.592-0.075,16.868-2.465,25-4
	C540.611,116.322,536.645,115.198,535.918,113z"/>
<path fill-rule="evenodd" clip-rule="evenodd" fill="#707781" stroke="#707781" stroke-miterlimit="10" d="M520.918,117
	c-3,0-6,0-9,0c-0.76,2.907-8.24-0.907-9,2c2,0,4,0,6,0c0.033,3.033-3.508,2.492-6,3c-1.666,0-3.334,0-5,0
	c-0.125,2.208-4.242,0.425-6,1c-0.85,1.483-2.517,2.15-5,2c0.31,1.357,2.504,0.83,4,1c6.675-1.659,16.088-0.579,22-3
	C497.58,123.008,519.374,120.915,520.918,117z"/>
<path fill-rule="evenodd" clip-rule="evenodd" fill="#2B343F" d="M544.918,122c0.279-2.279-0.24-3.759-2-4
	c-1.496-0.019-4.09,3.715-5,1c-8.132,1.535-15.408,3.925-25,4c-5.912,2.421-15.325,1.341-22,3c-0.027,0.973-1.225,0.776-2,1
	c-7.346,1.654-15.803,2.198-24,3c-11.672,0.662-20.359,4.307-30,7c0,0.333,0,0.667,0,1c-13.001,0.001-14.873-11.127-23-16
	c4.759,14.575,14.768,23.899,29,29c0.334,0,0.666,0,1,0c15.061-0.939,27.209-4.792,41-7c-19.965,0.461-43.465,13.287-55-3
	c31.266-13.401,82.543-12.123,116-20c0,0.667,0,1.333,0,2C544.769,123.184,544.861,122.61,544.918,122z"/>
<path fill-rule="evenodd" clip-rule="evenodd" fill="#3C4550" stroke="#3C4550" stroke-miterlimit="10" d="M475.918,126
	c-1.334,0-2.666,0-4,0c-3.643-0.309-6.508,0.159-9,1c0,0.333,0,0.667,0,1c2.072,0.595,6.569-1.236,7,1c-1.453,0.547-5.168-1.168-5,1
	c8.197-0.802,16.654-1.346,24-3c-7.094-0.761-11.425,1.242-18,1C470.467,125.216,476.369,128.784,475.918,126z"/>
<path fill-rule="evenodd" clip-rule="evenodd" fill="#515C66" d="M491.918,145c-9.889,0.444-19.173,1.494-27,4
	c9.57-0.429,16.824-3.176,27-3C491.918,145.667,491.918,145.333,491.918,145z"/>
<path fill-rule="evenodd" clip-rule="evenodd" fill="#3C4550" stroke="#3C4550" stroke-miterlimit="10" d="M533.918,143
	c-3,0-6,0-9,0c-10,0-20,0-30,0c-3.965,0.369-9.583-0.917-12,1c-13.791,2.208-25.939,6.061-41,7c2.965,2.898,8.233-0.383,12,0
	c4.367,0.034,7.799-0.869,11-2c7.827-2.506,17.111-3.556,27-4c0.334,0,0.666,0,1,0c11.004-2.329,26.33-0.336,39-1
	c0.666,0,1.334,0,2,0C533.918,143.667,533.918,143.333,533.918,143z"/>
<path fill-rule="evenodd" clip-rule="evenodd" fill="#806B57" d="M416.918,194c-2.979,3.354-0.944,11.723-6,13
	C414.534,211.498,416.24,198.885,416.918,194z"/>
<path fill-rule="evenodd" clip-rule="evenodd" fill="#806B57" d="M471.918,299c-3.104,7.545-11.361,9.558-20,7
	c-27.977-8.283-50.761-46.88-63-70c-2.982,2.017-4.935,5.066-8,7c-0.851,0.184-0.943-0.39-1-1c1.711,0.044,2.59-0.743,3-2
	c4.137-4.863,11.115-6.885,12-15c-2.076,8.209-0.127,13.333,5,22c14.469,24.461,54.775,39.68,72,51
	C471.918,298.333,471.918,298.667,471.918,299z M468.918,297c-8.589-4.293-18.394-8.059-26-1
	C446.006,303.232,466.73,309.178,468.918,297z"/>
<path fill-rule="evenodd" clip-rule="evenodd" fill="#707781" d="M485.918,296c-0.15-2.487-3.387-0.292-4,0
	c4.855,11.811,10.85,22.484,24,26c5.922,6.744,11.961,13.373,14,24c-3.031,2.639-8.4-0.89-12-1c0.739,7.594,2.643,14.023,2,23
	c-7.832-3.543-6.082-13.346-9-20c-4.144-9.45-11.5-18.219-13-29c-2.168-0.169-0.453,3.547-1,5c-0.162,1.162,0.221,1.779,1,2
	c2.002,1.331,2.229,4.438,3,7c0.329,2.338,1.202,4.132,2,6c4.045,7.621,5.18,18.153,11,24c1.807,6.193,0.783,15.217,6,18
	c5.221-1.78,2.164-11.836,3-18c1.012-2.006,7.278,2.497,9,0c1.906-18.931-2.963-26.847-11-39c-4.188-6.332-10.016-15.302-14-18
	c-4.09-2.769-16.718-1.402-12-10C485.252,296,485.584,296,485.918,296z"/>
<path fill-rule="evenodd" clip-rule="evenodd" fill="#A8947F" d="M488.918,295c3.154-1.179,5.556-3.111,8-5
	c-3.255-3.549,2.025-4.625,2-8c4.191-11.146,11.909-24.085,13-35c-7.064,0.893-8.477,9.788-11,15c-3.066,6.334-5.862,12.271-10,17
	c-10.504-2.146-21.583-0.173-30-6c-19.531-13.522-35.449-73.498-28-108c0.775-0.224,1.973-0.027,2-1c23.209,4.732,36.008-1.286,55-6
	c13.898-3.45,28.092-5.879,43-8c0-1.333,0-2.667,0-4c-8.18,3.43-16.708,3.521-27,4c-36.986,1.721-63.664,14.224-84-1
	c-2.981,5.352,0.981,17.648-2,23c-0.333,0-0.667,0-1,0c-0.627,3.04,1.28,8.613-1,10c-0.182,5.363,1.254,6.126-1,9
	c-0.21,1.71,1.705,2.59,0,3c-0.678,4.885-2.384,17.498-6,13c0.163-1.163-0.221-1.779-1-2c-0.739,3.664,2.459,5.556,0,8
	c-2.849-12.452-14.97-24.42-19-32c-0.139-0.26,0.11-0.726,0-1c-3.201,0.132-4.399,2.267-4,6c0,4,0,8,0,12
	c-0.961,6.65,2.89,13.747,3,16c0,0.667,0,1.333,0,2c3.794,3.82,3.426,4.819,5,9c-2.076,8.209-0.127,13.333,5,22
	c14.469,24.461,54.775,39.68,72,51c0.334,0,0.666,0,1,0c-0.802-3.802,4.729-1.271,7-2c0.666,0,1.334,0,2,0
	c0.613-0.292,3.85-2.487,4,0C487.358,296.534,488.357,292.103,488.918,295z"/>
<path fill-rule="evenodd" clip-rule="evenodd" fill="#C0B2A5" d="M498.918,282c2.52-1.813,2.48-6.187,5-8
	c1.457-5.209,3.36-9.973,6-14c1.129-4.871,2.474-9.526,5-13c-0.086-1.419-0.165-2.832,1-3c5.035-21.299,13.316-44.681,12-69
	c-8.062-1.586-7.871,8.212-9,13c-4.295,18.213-7.336,38.006-16,50c-40.918,2.567-61.486-18.214-67-48
	c18.527-15.983,45.697-32.205,76-36c6.52-0.816,16.538,2.185,21-4c-14.908,2.121-29.102,4.55-43,8c-18.992,4.714-31.791,10.732-55,6
	c-0.027,0.973-1.225,0.776-2,1c-7.449,34.502,8.469,94.478,28,108c8.417,5.827,19.496,3.854,30,6c4.138-4.729,6.934-10.666,10-17
	c2.523-5.212,3.936-14.107,11-15C510.827,257.915,503.109,270.854,498.918,282z"/>
<path fill-rule="evenodd" clip-rule="evenodd" fill="#C0B2A5" d="M392.918,180c-0.61-0.057-1.184-0.149-1-1
	c-0.61,0.057-1.184,0.149-1,1c0.11,0.274-0.139,0.74,0,1c4.03,7.58,16.151,19.548,19,32c2.459-2.444-0.739-4.336,0-8
	c-0.012-4.988-3.581-6.419-3-12c-0.333,0-0.667,0-1,0c-0.58,3.247,0.681,4.652,1,7c-5.984-5.349-6.707-15.96-16-18
	C391.165,180.914,392.906,181.322,392.918,180z"/>
<path fill-rule="evenodd" clip-rule="evenodd" fill="#3C4550" d="M382.918,240c4.137-4.863,11.115-6.885,12-15
	c-1.574-4.181-1.206-5.18-5-9c0.064,4.602,2.842,6.491,4,10C391.303,231.718,386.02,234.769,382.918,240z"/>
<path fill-rule="evenodd" clip-rule="evenodd" fill="#E3E1DE" d="M393.918,181c3.017,1.984,4.825,5.175,7,8
	C403.086,185.787,399.484,179.8,393.918,181z"/>
<path fill-rule="evenodd" clip-rule="evenodd" fill="#CEC9C2" d="M405.918,193c-0.58,3.247,0.681,4.652,1,7
	c-5.984-5.349-6.707-15.96-16-18c0.247-1.086,1.988-0.678,2-2c9.974-1.641,9.031,7.635,13,12
	C405.918,192.333,405.918,192.667,405.918,193z M393.918,181c3.017,1.984,4.825,5.175,7,8
	C403.086,185.787,399.484,179.8,393.918,181z"/>
<path fill-rule="evenodd" clip-rule="evenodd" fill="#C0B2A5" d="M365.918,314c0-2.667,0-5.333,0-8c5.092-1.017,15.409-4.27,24-5
	c-5.412-8.921-13.565-15.101-17-26c7.271-1.069,11.353,7.353,16,12c4.959,4.959,11.107,8.833,15,14c7.312,3.689,12.575,9.425,20,13
	c-6.648-6.022-16.924-11.624-26-20c-6.732-6.213-19.505-16.777-21-25c-1.465-8.056,5.441-15.226,4-26c-0.851,0.184-0.943-0.39-1-1
	c-1.565,4.102-1.518,9.816-2,15c-1.586,3.414-3.34,6.66-7,8c-0.649,1.017-2.299,1.034-2,3c3.197-3.51,2.543,8.935,1,10
	c-0.456,6.878-1.768,12.899-4,18c-0.741,6.517-3.044,11.245-1,18C365.251,314,365.585,314,365.918,314z"/>
<path fill-rule="evenodd" clip-rule="evenodd" fill="#C0B2A5" d="M468.918,317c-0.086-1.419-0.165-2.832,1-3
	c-0.535-3.868,1.785-4.882,1-9c-1.836,4.165-2.332,9.667-4,14C468.004,318.753,467.596,317.012,468.918,317z"/>
<path fill-rule="evenodd" clip-rule="evenodd" fill="#2B343F" d="M337.918,298c3.576,10.649-5.692,25.586-4,41
	c2.445-12.888,3.454-27.213,8-38c6.66-5.006,14.277-9.056,22-13c0.631,6.062-5.87,11.104-6,18c-0.308,16.369,21.683,38.868,33,51
	c19.656,21.071,38.45,46.242,60,65c-2.443-2.558-4.209-5.791-6-9c-3.893-5.44-8.335-10.331-13-15c-2.699-1.635-4.758-3.909-6-7
	c-4.884-4.45-9.386-9.281-13-15c-6.559-5.107-10.937-12.396-16-19c-5.942-7.058-12.383-13.617-18-21c-2.647-3.02-5.191-6.142-7-10
	c-2.418-1.248-3.234-4.099-4-7c-0.553-1.78-0.514-4.153-2-5c-0.333,0-0.667,0-1,0c-2.044-6.755,0.259-11.483,1-18
	c0.516-5.669,2.643-19.772,4-18c1.543-1.065,2.197-13.51-1-10c-2.291,1.376-2.349,4.985-5,6c-2.934,6.066-8.402,9.598-13,14
	C347.341,292.089,341.212,293.628,337.918,298z"/>
<path fill-rule="evenodd" clip-rule="evenodd" fill="#3C4550" stroke="#3C4550" stroke-miterlimit="10" d="M444.918,413
	c1.791,3.209,3.557,6.442,6,9c-21.55-18.758-40.344-43.929-60-65c-11.317-12.132-33.308-34.631-33-51c0.13-6.896,6.631-11.938,6-18
	c-7.723,3.944-15.34,7.994-22,13c-4.546,10.787-5.555,25.112-8,38c0,1.667,0,3.333,0,5c0,3.667,0,7.333,0,11
	c0.633,3.367-1.288,9.288,1,11c-0.156-15.823-0.581-31.914,4-43c5.423-4.577,14.139-5.861,13-17c29.224,49.776,74.41,83.59,103,134
	c-12.441-3.2-31.999-39.017-48-40c-8.342-0.513-14.7,8.912-23,12c-5.381-1.286-8.896-4.437-13-7c5.491,5.842,12.668,9.998,20,14
	c8.654-3.013,15.062-8.271,23-12c9.94,3.727,15.494,11.84,21,20c-4.895,4.105-11.01,6.99-17,10c24.274,24.393,54.559,48.107,76,72
	c-5.459-35.207-20.252-61.082-39-83c0-0.333,0-0.667,0-1c-2.293-3.04-4.863-5.804-7-9c-0.354-1.313-1.76-1.573-2-3
	C445.584,413,445.252,413,444.918,413z"/>
<path fill-rule="evenodd" clip-rule="evenodd" fill="#CEC9C2" d="M403.918,301c-3.893-5.167-10.041-9.041-15-14
	c-4.647-4.647-8.729-13.069-16-12c3.435,10.899,11.588,17.079,17,26c-8.591,0.73-18.908,3.983-24,5c0,2.667,0,5.333,0,8
	c1.486,0.847,1.447,3.22,2,5c2.418,1.248,3.234,4.099,4,7c1.809,3.858,4.353,6.98,7,10c0.236-4.236-2.917-5.083-4-8
	c11.936-4.064,25.604-6.396,39-9c-8.268-9.065-20.11-14.556-26-26C395.757,290.858,398.399,298.017,403.918,301z"/>
<path fill-rule="evenodd" clip-rule="evenodd" fill="#3C4550" stroke="#3C4550" stroke-width="0.5" stroke-miterlimit="10" d="
	M498.918,290c-0.666,0-1.334,0-2,0c-2.444,1.889-4.846,3.821-8,5c-0.027,0.973-1.225,0.776-2,1c18.969,18.314,44.091,40.186,35,80
	c-1.892,1.984-4.725,0.485-7,0c-0.566,7.767-2.086,14.581-5,20c-5.316-18.351-10.156-37.178-17-54c0.781,7.22,3.28,12.72,5,19
	c14.121,28.039,7.423,72.99,3,107c8.849-22.151,11.451-50.55,14-79c0.734-3.6,7.884-0.783,9-4c8.496-45.224-14.519-67.438-33-89
	c3.506-1.984,6.311-7.188,12-4C502.678,290.241,501.197,289.721,498.918,290z"/>
<path fill-rule="evenodd" clip-rule="evenodd" fill="#2B343F" stroke="#2B343F" stroke-miterlimit="10" d="M512.918,296
	c0.239,1.427,1.646,1.687,2,3c-4.278,1.388-10.553,0.78-13,4c5.541,6.459,9.123,14.877,15,21c3.004,2.996,3.397,8.603,7,11
	c-0.154,2.487,1.57,3.096,2,5c0.84,1.161,1.318,2.681,1,5c1.264,12.564-1.826,34.272,12,31c4.903,8.764,10.879,16.455,22,19
	c5.958,9.708,5.771,25.562,11,36c0.154-12.068-5.365-42.132,2-46c0.609,0.057,1.184,0.149,1,1c0.027,7.973,0.412,15.587,2,22
	c0.953,5.38,1.242,11.425,1,18c0.645,4.355-1.305,11.305,1,14c0,1,0,2,0,3c0.235,4.098,0.49,8.177,2,11
	c-0.155,3.822,0.052,7.281,2,9c0.43,4.096-0.927,6.406-2,9c-3.734,2.266-6.936,5.065-11,7c-0.334,0-0.666,0-1,0
	c-1.232-19.796-8.769-41.877-15-60c-3,0-6,0-9,0c0.014,18.135,2.315,48.197,9,66c4.064-0.936,6.248-3.752,11-4
	c-0.261,1.406-2.193,1.14-3,2c-2.516,1.817-6.851,1.815-7,6c-0.314,1.352-1.424,1.91-1,4c-0.238,4.095-3.396,5.27-4,9
	c-6.604,6.396-14.665,11.335-22,17c-3.892,1.108-7.234,2.766-10,5c-4.492,0.841-8.357,2.309-11,5c-1,0-2,0-3,0
	c-28.389,9.945-60.997,15.67-95,20c-20.35-0.295-33.438-0.388-49-2c-4.449,0.782-6.002-1.332-10-1c-7.146-3.943-14.951-4.035-24-2
	c-5.806-0.194-12.944,0.944-16-2c0.497-7.339,2.139-16.006,1-22c6.363-4.548,10.497-15.835,13-21c1.572,0.761,1.494,3.173,4,3
	c5.665-22.335,1.48-54.52,4-80c1.471,32.53,5.202,62.798,4,98c11.424-0.886,16.523,5.176,29,2c-4.98-17.824-6.68-35.717-17-48
	c-1.599-1.903-4.51-3.025-6-5c-9.638-12.772,3.441-42.049-9-57c3.077,1.923,2.094,7.906,6,9c2.492-0.841,5.357-1.309,9-1
	c15.198,21.469,27.024,46.31,45,65c0.003,6.664,2.838,10.496,5,15c12.671-1.988,17.466,16.266,29,18c4.9,0.736,4.544-2.147,8-3
	c4.324-1.066,8.926,1.486,14-2c-0.6-6.733-4.752-9.915-6-16c2.693-1.307,6.811-1.188,8-4c-2.456-5.877-0.557-16.11-6-19
	c-7.209,1.458-14.869,2.464-22,4c-24.562-15.771-48.419-32.248-59-62c2.874,0.207,5.08-0.254,6-2c-0.677-2.323-3.323-2.677-4-5
	c45.055,39.278,99.846,68.821,133,120c10.251-4.702,24.691-8.437,29-16c-1.292-3.889-1.821-5.558-5-3
	c-10.857-32.431-1.287-53.513,3-83c-8.042,32.625-19.39,61.944-29,93c-32.693-47.974-82.548-78.785-127-115c0.333,0,0.667,0,1,0
	c5.491,5.842,12.668,9.998,20,14c8.654-3.013,15.062-8.271,23-12c9.94,3.727,15.494,11.84,21,20c-4.895,4.105-11.01,6.99-17,10
	c24.274,24.393,54.559,48.107,76,72c-5.459-35.207-20.252-61.082-39-83c4.002,4.955,2.901-2.629,3-7c-4.049-16.284,3.924-44.59-5-56
	c-0.043-1.377,0.471-2.196,1-3c0.609-0.057,1.184-0.149,1-1c3.797,0.773,13.345,14.416,11,18c-2.357-0.309-1.86-3.473-5-3
	c0.219-1.257,1.558-2.044-1-2c0.044,4.623-0.559,9.892,2,12c0.692,7.974,2.851,14.482,3,23c0,1.333,0,2.667,0,4
	c1.547,13.119,3.788,25.545,8,36c7.017,1.624,12.092,0.806,18,2c3.191-4.476,2.703-12.631,5-18c-0.717,12.283-2.941,23.059-5,34
	c-1.349,2.603-6.981-0.633-7,1c3.572,10.762,5.734,22.932,10,33c3.76-44.556,20.215-97.914,4-138c14.121,28.039,7.423,72.99,3,107
	c8.849-22.151,11.451-50.55,14-79c0.734-3.6,7.884-0.783,9-4c8.496-45.224-14.519-67.438-33-89c3.506-1.984,6.311-7.188,12-4
	C506.991,292.594,510.324,293.927,512.918,296z M572.918,403c-1.683,5.625-0.101,22.765,3,30
	C577.783,424.124,576.443,409.816,572.918,403z M501.918,470c-3.837,1.145-1.234,5.751-3,7
	C501.868,480.527,500.496,471.312,501.918,470z"/>
<path fill-rule="evenodd" clip-rule="evenodd" fill="#192029" d="M572.918,403c-1.683,5.625-0.101,22.765,3,30
	C577.783,424.124,576.443,409.816,572.918,403z"/>
<path fill-rule="evenodd" clip-rule="evenodd" fill="#3C4550" stroke="#3C4550" stroke-miterlimit="10" d="M573.918,377
	c-1.605-2.728-0.957-7.709-3-10c-3.025,11.308-1.719,26.947-2,41c-4.037-30.963-40.197-29.803-42-63
	c1.264,12.564-1.826,34.272,12,31c4.903,8.764,10.879,16.455,22,19c5.958,9.708,5.771,25.562,11,36c0.154-12.068-5.365-42.132,2-46
	C573.918,382.333,573.918,379.667,573.918,377z"/>
<path fill-rule="evenodd" clip-rule="evenodd" fill="#3C4550" stroke="#3C4550" stroke-miterlimit="10" d="M516.918,324
	c-2.528-5.805-7.385-9.281-9-16c5.275-2.724,12.988-3.012,19-5c-0.793-2.207-4.701-1.299-5-4c-2.811-1.189-5.75-2.25-9-3
	c0.239,1.427,1.646,1.687,2,3c-4.278,1.388-10.553,0.78-13,4C507.459,309.459,511.041,317.877,516.918,324z"/>
<path fill-rule="evenodd" clip-rule="evenodd" fill="#806B57" stroke="#806B57" stroke-miterlimit="10" d="M442.918,296
	c7.606-7.059,17.411-3.293,26,1C466.73,309.178,446.006,303.232,442.918,296z M454.918,303c6.213,0.213,12.23,0.23,12-6
	C461.004,297.085,457.345,299.427,454.918,303z"/>
<path fill-rule="evenodd" clip-rule="evenodd" fill="#989B9F" d="M505.918,322c5.922,6.744,11.961,13.373,14,24
	c-3.031,2.639-8.4-0.89-12-1c0.739,7.594,2.643,14.023,2,23c-7.832-3.543-6.082-13.346-9-20c-4.144-9.45-11.5-18.219-13-29
	c-2.168-0.169-0.453,3.547-1,5c-2.864-0.136,0.864-6.864-2-7c0.58-3.246-0.682-4.652-1-7c-0.039-4.294-1.305-7.363-3-10
	c0.075-1.742-0.223-3.11-1-4c0.666,0,1.334,0,2,0C486.773,307.811,492.768,318.484,505.918,322z M498.918,330
	c-4.528,3.179,1.398,12.369,5,14C502.747,338.838,502.061,333.191,498.918,330z"/>
<path fill-rule="evenodd" clip-rule="evenodd" fill="#515C66" stroke="#515C66" stroke-width="0.5" stroke-miterlimit="10" d="
	M492.918,339c0,1,0,2,0,3c6.844,16.822,11.684,35.649,17,54c2.914-5.419,4.434-12.233,5-20c2.275,0.485,5.108,1.984,7,0
	c9.091-39.814-16.031-61.686-35-80c0.775-0.224,1.973-0.027,2-1c-0.561-2.897-1.56,1.534-3,1c-0.334,0-0.666,0-1,0
	c-4.718,8.598,7.91,7.231,12,10c3.984,2.698,9.812,11.668,14,18c8.037,12.153,12.906,20.069,11,39c-1.722,2.497-7.988-2.006-9,0
	c-0.836,6.164,2.221,16.22-3,18c-5.217-2.783-4.193-11.807-6-18C498.098,357.153,496.963,346.621,492.918,339z"/>
<path fill-rule="evenodd" clip-rule="evenodd" fill="#CEC9C2" d="M479.918,296c-2.271,0.729-7.802-1.802-7,2
	c0.56,2.897,1.561-1.534,3-1c4.375,4.636,6.252,17.068,9,20c0.58-3.246-0.682-4.652-1-7c-1.497-2.836-2.468-6.199-3-10
	C480.993,298.258,480.695,296.89,479.918,296z"/>
<path fill-rule="evenodd" clip-rule="evenodd" fill="#515C66" stroke="#515C66" stroke-miterlimit="10" d="M521.918,299
	c0.299,2.701,4.207,1.793,5,4c-6.012,1.988-13.725,2.276-19,5c1.615,6.719,6.472,10.195,9,16c3.004,2.996,3.397,8.603,7,11
	c-2.623-6.044-6.281-11.053-9-17c9.249-2.751,19.326-4.674,29-7c5.08,1.92,6.732,7.268,13,8c0.248-8.258-13.457-11.203-21-15
	C531.709,301.876,527.113,300.139,521.918,299z"/>
<path fill-rule="evenodd" clip-rule="evenodd" fill="#C0B2A5" d="M480.918,300c0.532,3.801,1.503,7.164,3,10
	C483.879,305.706,482.613,302.637,480.918,300z"/>
<path fill-rule="evenodd" clip-rule="evenodd" fill="#2B343F" d="M328.918,353c-1.119-19.591-0.802-41.564,8-54
	c-3.135-0.468-2.819,2.514-4,4c-11.347,4.802-24.668,12.249-36,19c-14.729,8.774-29.711,15.154-32,32
	c15.632-1.105,36.554,13.548,33,35c-5.339,0.344-8.242-3.663-13-1c0.831,10.036,13.493,26.998,6,42c1.925,4.009,1.709,13.405-2,15
	c-3.184-1.035-1.651-4.331-6-3c-0.726-3.059,1.726-2.941,1-6c-2.104-0.896-5.969-0.031-5-4c-2.558-0.044-1.22,0.743-1,2
	c-4.865-7.801-7.85-17.483-10-28c-12.667,13.348-8.779,34.305-12,53c-3.051,17.703-9.28,35.389-10,54c-1.419-0.086-2.832-0.165-3,1
	c-6.967-8.904-0.254-25.793-2-39c-2.27,1.063-0.381,6.286-1,9c0.826,2.826-1.409,2.591-1,5c0,2.333,0,4.667,0,7
	c0.491,4.491-0.507,7.493-1,11c0,1,0,2,0,3c0.973,0.027,0.776,1.224,1,2c4.71,8.623,11.124,15.543,22,18
	c3.653-11.363,3.432-23.466,9-31c2.297,4.41,7.544,4.613,13,4c1.823-6.844,1.561-15.772,10-16c5.451-9.883,4.953-25.713,9-37
	c5.287-1.156,5.289,6.732,9,4c-0.862-10.805-3.258-20.075-11-24c0.829-15.449-10.629-28.312-8-39c9.667,2.333,14.104,9.896,22,14
	c-6.916-23.084-18.856-41.144-37-53c8.815-3.8,13.81,4.846,21,6c-0.979-3.688-4.379-4.954-6-8c11.262-2.404,22.662-4.671,33-8
	C329.833,342.085,326.374,350.544,328.918,353z"/>
<path fill-rule="evenodd" clip-rule="evenodd" fill="#192029" stroke="#192029" stroke-miterlimit="10" d="M329.918,367
	c0.475,7.858,3.442,13.225,8,17c9.493,8.174,18.427,16.906,28,25c45.055,39.278,99.846,68.821,133,120
	c10.251-4.702,24.691-8.437,29-16c-1.292-3.889-1.821-5.558-5-3c-10.857-32.431-1.287-53.513,3-83c-8.042,32.625-19.39,61.944-29,93
	c-32.693-47.974-82.548-78.785-127-115c-3.846-1.487-6.814-3.853-9-7c-2.576-1.09-4.807-2.527-6-5c-3.95-2.384-7.438-5.229-10-9
	c-4.778-4.222-10.649-7.351-10-17c0-0.333,0-0.667,0-1c-2.288-1.712-0.367-7.633-1-11c-1.657-1.4-1.657-9.6,0-11
	c0-1.667,0-3.333,0-5c-1.692-15.414,7.576-30.351,4-41c0.184,0.851-0.39,0.943-1,1c-8.802,12.436-9.119,34.409-8,54
	C328.852,358.066,330.637,361.281,329.918,367z"/>
<path fill-rule="evenodd" clip-rule="evenodd" fill="#707781" d="M337.918,384c-4.558-3.775-7.525-9.142-8-17
	c-0.851,0.184-0.943-0.39-1-1c-2.077-0.257-0.273-4.394-2-5c-6.017,0.999-14.647,4.665-19,4c1.668,10.004,9.916,22.08,18,29
	c7.502,0.399,9.436-1.924,18-2c-0.677-2.323-3.323-2.677-4-5C339.564,385.687,338.157,385.427,337.918,384z"/>
<path fill-rule="evenodd" clip-rule="evenodd" fill="#2B343F" d="M350.918,389c-2.632-1.035-3.368-3.965-6-5
	c2.562,3.771,6.05,6.616,10,9C354.015,391.237,352.681,389.903,350.918,389z"/>
<path fill-rule="evenodd" clip-rule="evenodd" fill="#3C4550" d="M344.918,384c-0.677-2.323-3.323-2.677-4-5
	c-3.5-2.167-4.13-7.203-5-12c-0.333,0-0.667,0-1,0C334.269,376.649,340.14,379.778,344.918,384z"/>
<path fill-rule="evenodd" clip-rule="evenodd" fill="#707781" d="M548.918,307c2.181,4.486,7.572,5.762,10,10c0.334,0,0.666,0,1,0
	c4.277,6.057,7.068,13.599,8,23c-0.334,0-0.666,0-1,0c-1.842-2.492-0.702-7.965-4-9c-0.511,12.489-7.398,18.602-8,31
	c5.18-2.487,6.459-8.874,12-11c0.797,13.205,2.5,29.78-1,41c-7.74-11.26-13.428-24.572-27-30c-1.865-3.801,0.225-11.558-2-15
	c-2.288,1.045-6.032,0.635-8,2c-0.408-3.591-0.253-7.747-3-9c-0.43-1.904-2.154-2.513-2-5c-2.623-6.044-6.281-11.053-9-17
	c9.249-2.751,19.326-4.674,29-7c5.08,1.92,6.732,7.268,13,8c0.248-8.258-13.457-11.203-21-15
	C541.578,303.673,543.648,306.936,548.918,307z M547.918,321c-4.387,7.28-4.594,18.739-8,27c3.533,3.143,2.895-6.396,9-4
	c0.811,0.19,0.996,1.003,2,1c2.27,1.063,0.381,6.286,1,9c4.74-5.593,7.732-12.935,8-23c-3.998-0.002-6.002-1.998-10-2
	C548.873,326.712,549.283,322.968,547.918,321z M565.918,354c-4.703,3.63-8.145,8.521-11,14c3.376,1.624,4.467,5.533,10,5
	C564.139,365.554,566.325,361.074,565.918,354z"/>
<path fill-rule="evenodd" clip-rule="evenodd" fill="#192029" stroke="#192029" stroke-miterlimit="10" d="M240.918,475
	c1.746,13.207-4.967,30.096,2,39c0.168-1.165,1.581-1.086,3-1c0.72-18.611,6.949-36.297,10-54c3.221-18.695-0.667-39.652,12-53
	c2.15,10.517,5.135,20.199,10,28c-0.22-1.257-1.558-2.044,1-2c-0.969,3.969,2.896,3.104,5,4c0.726,3.059-1.726,2.941-1,6
	c4.349-1.331,2.816,1.965,6,3c3.709-1.595,3.925-10.991,2-15c7.493-15.002-5.169-31.964-6-42c4.758-2.663,7.661,1.344,13,1
	c3.554-21.452-17.368-36.105-33-35c0.726,3.059-1.726,2.941-1,6c0.155,3.822-0.052,7.282-2,9c-5.783,29.551-14.23,56.437-18,88
	c0.105,4.104,0.164,8.164-2,10C242.355,470.438,241.522,472.604,240.918,475z"/>
<path fill-rule="evenodd" clip-rule="evenodd" fill="#3C4550" stroke="#3C4550" stroke-miterlimit="10" d="M260.918,530
	c3.653-11.363,3.432-23.466,9-31c2.297,4.41,7.544,4.613,13,4c1.823-6.844,1.561-15.772,10-16c5.451-9.883,4.953-25.713,9-37
	c5.287-1.156,5.289,6.732,9,4c-0.862-10.805-3.258-20.075-11-24c0.829-15.449-10.629-28.312-8-39c9.667,2.333,14.104,9.896,22,14
	c-6.916-23.084-18.856-41.144-37-53c8.815-3.8,13.81,4.846,21,6c-0.979-3.688-4.379-4.954-6-8c11.262-2.404,22.662-4.671,33-8
	c4.915,0.085,1.456,8.544,4,11c-0.066,5.066,1.719,8.281,1,14c-0.851,0.184-0.943-0.39-1-1c-0.45-6.55-0.138-13.862-4-17
	c-7.883,3.117-18.359,3.641-26,7c1.475,2.525,3.533,4.467,4,8c-8.571-2.77-13.596-14.395-25-11c20.481,12.851,44.24,37.186,41,67
	c-6.342-8.378-11.298-23.298-24-22c12.232,23.102,20.408,50.259,31,75c4.012-8.819,3.234-24.904,4-34
	c1.234-14.662-4.398-27.718-2-37c4.849,7.781,14.641,4.582,23,9c2.372-2.295,2.867-6.466,7-7c-5.111-6.556-12.02-11.313-18-17
	c-0.354-1.313-1.761-1.573-2-3c9.493,8.174,18.427,16.906,28,25c0.677,2.323,3.323,2.677,4,5c-0.92,1.746-3.126,2.207-6,2
	c10.581,29.752,34.438,46.229,59,62c7.131-1.536,14.791-2.542,22-4c5.443,2.89,3.544,13.123,6,19c-1.189,2.812-5.307,2.693-8,4
	c1.248,6.085,5.4,9.267,6,16c-5.074,3.486-9.676,0.934-14,2c-3.456,0.853-3.1,3.736-8,3c-11.534-1.734-16.329-19.988-29-18
	c-2.162-4.504-4.997-8.336-5-15c-17.976-18.69-29.802-43.531-45-65c-3.643-0.309-6.508,0.159-9,1c-3.906-1.094-2.923-7.077-6-9
	c-0.055-1.278-1.282-1.385-1-3c0.729-2.729-1.987-2.013-2-4c-2.228,1.022,1.308,4.598,0,8c0.333,0,0.667,0,1,0
	c0.841,2.492,1.309,5.357,1,9c-2.52,25.48,1.665,57.665-4,80c-2.506,0.173-2.428-2.239-4-3c-2.503,5.165-6.637,16.452-13,21
	c1.139,5.994-0.503,14.661-1,22c3.056,2.944,10.194,1.806,16,2c0,0.333,0,0.667,0,1c-1,0-2,0-3,0c-6.333,0-12.667,0-19,0
	c-0.667,0-1.333,0-2,0c-3.129-0.204-7.341,0.675-9-1c-2.526-3.141-8.137-3.196-13-4c-3.977,0.311-5.023-2.311-9-2
	c-2.985-2.349-8.786-1.88-11-5c-2.359-1.974-5.203-3.464-8-5c-0.981-1.352-2.668-1.998-4-3c-3.385-3.949-8.393-6.274-9-13
	C243.628,520.623,250.042,527.543,260.918,530z M445.918,475c-5.801,2.199-14.073,1.927-19,5c4.254,6.657,11.685,14.646,21,13
	C448.215,486.037,447.021,480.563,445.918,475z"/>
<path fill-rule="evenodd" clip-rule="evenodd" fill="#E3E1DE" d="M468.918,317c-1.322,0.012-0.914,1.753-2,2
	c0.279,2.279-0.24,3.759-2,4c0,0.667,0,1.333,0,2C467.348,323.431,468.664,320.746,468.918,317z"/>
<path fill-rule="evenodd" clip-rule="evenodd" fill="#E3E1DE" d="M423.918,314c-7.425-3.575-12.688-9.311-20-13
	c-5.519-2.983-8.161-10.142-16-8c5.89,11.444,17.732,16.935,26,26c-13.396,2.604-27.064,4.936-39,9c1.083,2.917,4.236,3.764,4,8
	c5.617,7.383,12.058,13.942,18,21c2.039,0.294,1.961,2.706,4,3c-2.341-3.659-5.385-6.615-8-10c18.627-5.706,39.041-9.625,59-14
	c-13.738-7.595-30.244-12.422-41-23c15.1-2.428,26.955,14.798,45,16c0-0.333,0-0.667,0-1
	C443.676,324.908,434.328,318.923,423.918,314z"/>
<path fill-rule="evenodd" clip-rule="evenodd" fill="#FFFFFF" d="M400.918,360c0.677,2.323,3.323,2.677,4,5
	c3.104,1.562,5.246,4.088,8,6c5.41,3.256,7.761,9.572,14,12c5.249-6.084,10.916-11.751,17-17c4.058-2.609,5.383-7.951,9-11
	c1.123-2.544,2.456-4.877,4-7c-0.379-4.379,2.857-5.142,3-9c1.42-0.086,2.832-0.165,3,1c0.851-0.184,0.943,0.39,1,1
	c8.502,8.501,20.578,18.751,27,26c0,0.333,0,0.667,0,1c3.443,0.776,4.776-0.557,4-4c0.074-6.741-2.355-10.979-3-17
	c-1.77-3.896-2.378-8.955-3-14c-1.172-0.161-0.844-1.823-1-3c-2.134,0.467-1.904-1.429-2-3c-4.537,3.463-13.348,2.653-18,6
	c3.311-8.746,9.28-18.846,7-30c-3.02,2.314-2.371,8.295-5,11c-1.165,0.168-1.086,1.581-1,3c-0.254,3.746-1.57,6.431-4,8
	c0.183,3.893-5.746,6.863-9,4c-18.045-1.202-29.9-18.428-45-16c10.756,10.578,27.262,15.405,41,23c-19.959,4.375-40.373,8.294-59,14
	C395.533,353.385,398.577,356.341,400.918,360z"/>
<path fill-rule="evenodd" clip-rule="evenodd" fill="#E3E1DE" d="M443.918,366c-6.084,5.249-11.751,10.916-17,17
	c-6.239-2.428-8.59-8.744-14-12c3.407,4.926,8.593,8.074,12,13c0.666,0,1.334,0,2,0c4.582-5.418,9.582-10.418,15-15
	C442.271,367.687,443.678,367.427,443.918,366z"/>
<path fill-rule="evenodd" clip-rule="evenodd" fill="#E3E1DE" d="M462.918,340c-0.168-1.165-1.58-1.086-3-1
	c-0.143,3.858-3.379,4.621-3,9c2.307,0.306,1.111-2.889,3-3c-0.162-1.162,0.221-1.779,1-2
	C460.578,340.993,461.123,339.871,462.918,340z"/>
<path fill-rule="evenodd" clip-rule="evenodd" fill="#E3E1DE" d="M490.918,367c-6.422-7.249-18.498-17.499-27-26
	c0.354,1.313,1.761,1.573,2,3C474.636,351.282,481.367,360.551,490.918,367z"/>
<path fill-rule="evenodd" clip-rule="evenodd" fill="#515C66" stroke="#515C66" stroke-miterlimit="10" d="M567.918,340
	c-0.334,0-0.666,0-1,0c-1.842-2.492-0.702-7.965-4-9c-0.511,12.489-7.398,18.602-8,31c5.18-2.487,6.459-8.874,12-11
	c0.797,13.205,2.5,29.78-1,41c-7.74-11.26-13.428-24.572-27-30c-1.865-3.801,0.225-11.558-2-15c-2.288,1.045-6.032,0.635-8,2
	c-0.408-3.591-0.253-7.747-3-9c0.84,1.161,1.318,2.681,1,5c1.803,33.197,37.963,32.037,42,63c0.281-14.053-1.025-29.692,2-41
	c2.043,2.291,1.395,7.272,3,10C573.782,362.803,569.297,352.955,567.918,340z"/>
<path fill-rule="evenodd" clip-rule="evenodd" fill="#515C66" d="M350.918,389c-2.915-3.752-6.248-7.085-10-10
	c0.677,2.323,3.323,2.677,4,5C347.55,385.035,348.286,387.965,350.918,389z"/>
<path fill-rule="evenodd" clip-rule="evenodd" fill="#707781" d="M355.918,339c-0.105-7.578-5.338-19.512-1-25
	c18.071,34.596,51.627,53.706,69,89c-10.873,4.045-17.96-9.877-29-12c-7.938,3.729-14.346,8.987-23,12
	c-5.165-1.52-10.712-7.932-14-8c1.44,0.56,2.44,1.56,3,3c-2.576-1.09-4.807-2.527-6-5c-0.903-1.763-2.237-3.097-4-4
	c-2.915-3.752-6.248-7.085-10-10c-3.5-2.167-4.13-7.203-5-12C331.718,346.8,347.372,346.454,355.918,339z M358.918,392
	c7.312-4.688,14.965-9.035,23-13c10.873,2.106,18.273,19.21,30,11c-8.053-16.445-21.857-28.136-35-41
	c-4.681-4.581-9.047-14.733-17-12c-1.021,8.806,6.317,17.596,9,26c-7.651,6.016-17.168,10.166-26,15
	C346.283,384.635,352.071,388.847,358.918,392z"/>
<path fill-rule="evenodd" clip-rule="evenodd" fill="#515C66" d="M335.918,367c-4.2-20.2,11.454-20.546,20-28
	c-0.105-7.578-5.338-19.512-1-25c18.071,34.596,51.627,53.706,69,89c-10.873,4.045-17.96-9.877-29-12
	c-7.938,3.729-14.346,8.987-23,12c-5.165-1.52-10.712-7.932-14-8c1.44,0.56,2.44,1.56,3,3c2.186,3.147,5.154,5.513,9,7
	c0.333,0,0.667,0,1,0c4.104,2.563,7.619,5.714,13,7c8.3-3.088,14.658-12.513,23-12c16.001,0.983,35.559,36.8,48,40
	c-28.59-50.41-73.776-84.224-103-134c1.139,11.139-7.577,12.423-13,17c-4.581,11.086-4.156,27.177-4,43c0,0.333,0,0.667,0,1
	C335.251,367,335.585,367,335.918,367z"/>
<path fill-rule="evenodd" clip-rule="evenodd" fill="#CEC9C2" d="M455.918,329c3.254,2.863,9.183-0.107,9-4c0-0.667,0-1.333,0-2
	c-2.343,2.324-2.849,6.484-9,5C455.918,328.333,455.918,328.667,455.918,329z"/>
<path fill-rule="evenodd" clip-rule="evenodd" fill="#707781" d="M462.918,340c-1.795-0.129-2.34,0.993-2,3
	c5.644,2.141,10.696,13.217,17,18c-0.01-5.671-8.736-11.253-12-17c-0.239-1.427-1.646-1.687-2-3
	C463.861,340.39,463.769,339.816,462.918,340z"/>
<path fill-rule="evenodd" clip-rule="evenodd" fill="#2E8EC7" d="M477.918,361c-6.304-4.783-11.356-15.859-17-18
	c-0.779,0.221-1.162,0.838-1,2c0.22,3.22-1.769,4.231-1,8c1.794-0.127,2.109,1.224,4,1c-2.311-0.613-2.779-5.236-1-7
	c5.602,2.731,8.862,7.805,13,12c1.742-0.296,3.508,3.88,0,3c0.189,0.81,1.004,0.997,1,2
	C477.148,363.563,477.972,362.721,477.918,361z"/>
<path fill-rule="evenodd" clip-rule="evenodd" fill="#989B9F" d="M465.918,344c3.264,5.747,11.99,11.329,12,17
	c0.054,1.721-0.77,2.563-2,3c0,0.333,0,0.667,0,1c2.102-2.116,3.898,1.177,6,2c13.055,5.612,12.426,24.907,12,44
	c-3.213,0.88-1.37-3.296-4-3c0.532,2.802,1.468,5.198,2,8c2.059,0.274,0.941,3.726,3,4c0.575-1.758-1.209-5.875,1-6
	c0-4.667,0-9.333,0-14c-2.295-2.038-0.361-8.305-1-12c-0.609-2.391,1.256-7.255-1-8c-0.488-7.512-6.936-9.065-10-14
	c1.617-2.511,4.812,1.775,7,2c0-0.333,0-0.667,0-1C481.367,360.551,474.636,351.282,465.918,344z"/>
<path fill-rule="evenodd" clip-rule="evenodd" fill="#707781" d="M459.918,345c-1.889,0.111-0.693,3.306-3,3
	c-1.544,2.123-2.877,4.456-4,7c-1.232,5.586-2.617,6.528-4,13c2.896,2.242,7.546-2.449,6,5c3.428-3.493-1.703-6.914-2-10
	c-0.043-1.377,0.471-2.196,1-3c0.068-2.933,2.286-3.714,4-5c0.973-0.027,0.775-1.224,1-2
	C458.149,349.231,460.138,348.22,459.918,345z"/>
<path fill-rule="evenodd" clip-rule="evenodd" fill="#3C4550" d="M457.918,419c-4.049-16.284,3.924-44.59-5-56
	c0.297,3.086,5.428,6.507,2,10c0,1.333,0,2.667,0,4c2.32,5.014,0.344,14.323,1,21c0,4,0,8,0,12c0,1.333,0,2.667,0,4
	c2.168-0.169,0.453,3.547,1,5C457.252,419,457.584,419,457.918,419z"/>
<path fill-rule="evenodd" clip-rule="evenodd" fill="#2E8EC7" stroke="#2E8EC7" stroke-miterlimit="10" d="M474.918,359
	c-4.138-4.195-7.398-9.269-13-12c-1.779,1.764-1.311,6.387,1,7c2.102,1.232,3.898,2.768,6,4c-1.078-4.255-7.508-3.158-7-9
	C467.281,351.303,470.327,355.924,474.918,359z"/>
<path fill-rule="evenodd" clip-rule="evenodd" fill="#2E8EC7" stroke="#2E8EC7" stroke-miterlimit="10" d="M468.918,358
	c1.603,1.73,3.737,2.93,6,4c3.508,0.88,1.742-3.296,0-3c-4.591-3.076-7.637-7.697-13-10C461.41,354.842,467.84,353.745,468.918,358z
	"/>
<path fill-rule="evenodd" clip-rule="evenodd" fill="#515C66" d="M326.918,361c-6.017,0.999-14.647,4.665-19,4
	c1.668,10.004,9.916,22.08,18,29c7.502,0.399,9.436-1.924,18-2c-0.677-2.323-3.323-2.677-4-5c5.98,5.687,12.889,10.444,18,17
	c-4.133,0.534-4.628,4.705-7,7c-8.359-4.418-18.151-1.219-23-9c-2.398,9.282,3.234,22.338,2,37c-0.766,9.096,0.012,25.181-4,34
	c-10.592-24.741-18.768-51.898-31-75c12.702-1.298,17.658,13.622,24,22c3.24-29.814-20.519-54.149-41-67
	c11.404-3.395,16.429,8.23,25,11c-0.467-3.533-2.525-5.475-4-8c7.641-3.359,18.117-3.883,26-7c3.862,3.138,3.55,10.45,4,17
	C326.841,365.743,328.645,361.606,326.918,361z M283.918,353c-2.558-0.044-1.22,0.743-1,2c12.718,7.948,22.102,19.232,30,32
	C310.844,372.071,297.375,359.879,283.918,353z M324.918,413c-1.021,8.003-6.633,16.056,0,21
	C330.078,429.806,326.995,418.538,324.918,413z"/>
<path fill-rule="evenodd" clip-rule="evenodd" fill="#2E8EC7" d="M468.918,377c2.463-3.836-3.16-8.143-6-10
	C465.207,370.044,467.732,372.852,468.918,377z"/>
<path fill-rule="evenodd" clip-rule="evenodd" fill="#2E8EC7" d="M464.918,407c0,1.333,0,2.667,0,4c1.311,11.689,7.862,18.138,15,24
	c3.26,0.261,4.812-1.188,5-4c5.082,1.823,10.872,0.767,11-7c-0.811,0.19-0.997,1.003-2,1c0.281-1.615-0.945-1.722-1-3
	c-1.172,0.161-0.844,1.823-1,3c-5.072,2.898-5.841-2.816-9-1c0.041,3.04,0.582,6.582-3,6c-7.042-2.625-3.715-15.619-13-16
	C466.529,411.389,466.404,408.514,464.918,407z"/>
<path fill-rule="evenodd" clip-rule="evenodd" fill="#C0B2A5" d="M489.918,408c2.63-0.296,0.787,3.88,4,3
	c0.426-19.093,1.055-38.388-12-44c7.142,7.913,15.285,27.2,8,40C489.918,407.333,489.918,407.667,489.918,408z"/>
<path fill-rule="evenodd" clip-rule="evenodd" fill="#2E8EC7" stroke="#2E8EC7" stroke-miterlimit="10" d="M453.918,360
	c0.609-0.057,1.184-0.149,1-1c3.797,0.773,13.345,14.416,11,18c0.437,1.23,1.279,2.054,3,2c0-0.667,0-1.333,0-2
	c-1.186-4.148-3.711-6.956-6-10c-1.391-4.276-4.416-6.918-5-12C456.204,356.286,453.986,357.067,453.918,360z"/>
<path fill-rule="evenodd" clip-rule="evenodd" fill="#CEC9C2" d="M441.918,369c-5.418,4.582-10.418,9.582-15,15
	c0.811-0.19,0.996-1.003,2-1c3.582-4.418,7.582-8.418,12-12C441.107,370.19,441.922,370.003,441.918,369z"/>
<path fill-rule="evenodd" clip-rule="evenodd" fill="#C0B2A5" d="M440.918,371c-4.418,3.582-8.418,7.582-12,12
	C433.336,379.418,437.336,375.418,440.918,371z"/>
<path fill-rule="evenodd" clip-rule="evenodd" fill="#CEC9C2" d="M424.918,384c-3.407-4.926-8.593-8.074-12-13
	c-2.754-1.912-4.896-4.438-8-6c0.354,1.313,1.761,1.573,2,3C413.256,372.995,418.869,378.716,424.918,384z"/>
<path fill-rule="evenodd" clip-rule="evenodd" fill="#C0B2A5" d="M426.918,390c3.881-4.452,10.975-5.692,14-11
	C437.577,383.34,426.857,385.587,426.918,390z"/>
<path fill-rule="evenodd" clip-rule="evenodd" fill="#C0B2A5" d="M441.918,379c3.066-1.935,5.018-4.982,8-7
	c2.557,4.443,0.26,13.74,4,17c-0.499-5.501,1.103-13.103-1-17C447.82,369.876,444.878,375.937,441.918,379z"/>
<path fill-rule="evenodd" clip-rule="evenodd" fill="#707781" d="M396.918,357c5.063,6.604,9.441,13.893,16,19
	c-0.454-4.213-4.729-4.604-6-8c-0.239-1.427-1.646-1.687-2-3c-0.677-2.323-3.323-2.677-4-5
	C398.879,359.706,398.957,357.294,396.918,357z"/>
<path fill-rule="evenodd" clip-rule="evenodd" fill="#707781" d="M490.918,368c-2.188-0.225-5.383-4.511-7-2
	c3.064,4.935,9.512,6.488,10,14c0-2,0-4,0-6c-1.44-0.227-0.349-2.984-2-3c-0.493-3.16,4.963-0.371,4-4c0.086-1.419,0.165-2.832-1-3
	C495.694,367.443,494.361,368.776,490.918,368z"/>
<path fill-rule="evenodd" clip-rule="evenodd" fill="#E3E1DE" d="M487.918,402c0.529-1.539,1.043-0.063,1,1
	c2.358-14.363-0.731-31.932-11-37c-1.746,0.92-2.207,3.126-2,6c2.275,5.392,3.933,11.4,7,16c0.615-4.615-2.245-5.755-2-10
	c9.16,0.506,6.518,12.816,8,21c-3.002-0.998-0.841-7.159-5-7C485.172,395.413,486.066,399.185,487.918,402z"/>
<path fill-rule="evenodd" clip-rule="evenodd" fill="#CEC9C2" d="M475.918,372c-0.207-2.874,0.254-5.08,2-6
	c10.269,5.068,13.358,22.637,11,37c0.043-1.063-0.471-2.539-1-1c-0.15,2.483,0.517,4.15,2,5c7.285-12.8-0.858-32.087-8-40
	c-2.102-0.823-3.898-4.116-6-2C474.98,365.845,473.782,371.375,475.918,372z"/>
<path fill-rule="evenodd" clip-rule="evenodd" fill="#989B9F" d="M424.918,384c-6.049-5.284-11.662-11.005-18-16
	c1.271,3.396,5.546,3.787,6,8c5.097,4.237,9.343,9.323,13,15c1.242,3.091,3.301,5.365,6,7c-1.392-2.941-4.883-3.783-5-8
	c-0.061-4.413,10.659-6.66,14-11c0.334,0,0.666,0,1,0c2.96-3.063,5.902-9.124,11-7c2.103,3.897,0.501,11.499,1,17
	c0,0.333,0,0.667,0,1c0.334,0,0.666,0,1,0c0-4.333,0-8.667,0-13c0-1.333,0-2.667,0-4c1.546-7.449-3.104-2.758-6-5
	c1.383-6.472,2.768-7.414,4-13c-3.617,3.049-4.942,8.391-9,11c-0.24,1.427-1.646,1.687-2,3c0.004,1.003-0.811,1.19-1,2
	c-3.582,4.418-7.582,8.418-12,12c-1.004-0.003-1.189,0.81-2,1C426.252,384,425.584,384,424.918,384z"/>
<path fill-rule="evenodd" clip-rule="evenodd" fill="#3C4550" d="M495.918,367c0.963,3.629-4.493,0.84-4,4
	c1.651,0.016,0.56,2.773,2,3c-2.008-5.342,4.277-2.389,3-7C496.584,367,496.252,367,495.918,367z"/>
<path fill-rule="evenodd" clip-rule="evenodd" fill="#CEC9C2" d="M453.918,389c-3.74-3.26-1.443-12.557-4-17
	c-2.982,2.018-4.934,5.065-8,7c-0.334,0-0.666,0-1,0c-3.025,5.308-10.119,6.548-14,11c9.027-3.973,15.259-10.741,23-16
	c-2.939,7.92,4.038,38.532,0,42c-0.908,0.779-3.143-3.972-4-3c0.24,1.427,1.646,1.687,2,3c1.313,0.354,1.572,1.761,3,2
	c1.351-2.649,1.584-6.415,4-8c0-2,0-4,0-6c-2.305-2.695-0.355-9.645-1-14C453.918,389.667,453.918,389.333,453.918,389z"/>
<path fill-rule="evenodd" clip-rule="evenodd" fill="#989B9F" d="M450.918,418c-1.428-0.239-1.687-1.646-3-2
	c2.137,3.196,4.707,5.96,7,9c3.11,3.126,1.689-3.386,2-6c-0.547-1.453,1.168-5.169-1-5c-0.619,2.714,1.27,7.937-1,9
	C454.241,420.677,451.595,420.323,450.918,418z"/>
<path fill-rule="evenodd" clip-rule="evenodd" fill="#515C66" d="M412.918,376c3.614,5.719,8.116,10.55,13,15
	C422.261,385.323,418.015,380.237,412.918,376z"/>
<path fill-rule="evenodd" clip-rule="evenodd" fill="#E3E1DE" d="M426.918,390c9.027-3.973,15.259-10.741,23-16
	c-2.939,7.92,4.038,38.532,0,42c-0.908,0.779-3.143-3.972-4-3c-0.334,0-0.666,0-1,0c-3.893-5.44-8.335-10.331-13-15
	C430.526,395.059,427.035,394.217,426.918,390z M447.918,414c1.812-7.824,1.463-22.12,0-30c-6.74,1.926-14.695,2.638-19,7
	C434.264,399.654,441.999,405.919,447.918,414z"/>
<path fill-rule="evenodd" clip-rule="evenodd" fill="#707781" d="M456.918,419c-0.311,2.614,1.11,9.126-2,6c0,0.333,0,0.667,0,1
	c4.002,4.955,2.901-2.629,3-7C457.584,419,457.252,419,456.918,419z"/>
<path fill-rule="evenodd" clip-rule="evenodd" fill="#989B9F" stroke="#989B9F" stroke-miterlimit="10" d="M482.918,104
	c0.24,1.759,1.721,2.279,4,2c1,0,2,0,3,0c-1.232-1.434-3.439-1.895-6-2C483.584,104,483.252,104,482.918,104z"/>
<path fill-rule="evenodd" clip-rule="evenodd" fill="#515C66" d="M485.918,107c1.514,1.487,4.389,1.611,7,2c0-0.667,0-1.333,0-2
	c-1.742,0.075-3.109-0.223-4-1c-1,0-2,0-3,0C485.918,106.333,485.918,106.667,485.918,107z"/>
<path fill-rule="evenodd" clip-rule="evenodd" fill="#707781" d="M492.918,107c0,0.667,0,1.333,0,2c2.318-0.319,3.84,0.161,5,1
	c0.666,0,1.334,0,2,0C499.387,107.198,495.1,108.151,492.918,107z"/>
<path fill-rule="evenodd" clip-rule="evenodd" fill="#3C4550" d="M497.918,110c1.453,1.547,3.9,2.1,7,2c0-0.333,0-0.667,0-1
	c-1.16-0.839-2.682-1.319-5-1C499.252,110,498.584,110,497.918,110z"/>
<path fill-rule="evenodd" clip-rule="evenodd" fill="#707781" d="M504.918,112c4.354,0.313,8.179,1.155,12,2
	c3.399-0.475,7.592,0.424,5,3c2.873,0.207,5.08-0.253,6-2c-0.775-0.224-1.973-0.027-2-1c-6.447-1.552-13.475-2.525-21-3
	C504.918,111.333,504.918,111.667,504.918,112z"/>
<path fill-rule="evenodd" clip-rule="evenodd" fill="#192029" d="M516.918,114c-3.821-0.845-7.646-1.687-12-2
	c-3.1,0.1-5.547-0.453-7-2c-1.16-0.839-2.682-1.319-5-1c-2.611-0.389-5.486-0.513-7-2c-10.973-0.114-20.433-6.783-30-5
	c3.748,5.918,13.319,6.014,19,10c0.334,0,0.666,0,1,0c3.945,0.721,8.094,1.24,11,3C495.865,114.504,510.166,118.926,516.918,114z"/>
<path fill-rule="evenodd" clip-rule="evenodd" fill="#192029" d="M491.918,123c1.758-0.575,5.875,1.208,6-1
	c0.187-4.103-13.499-2.318-18-5c-9.814-0.853-18.025-3.308-27-5c-3.243,5.09-6.788,9.878-9,16c7.447,0.78,11.926-1.407,19-1
	c2.492-0.841,5.357-1.309,9-1c3.78-1.553,8.716-1.951,14-2C486.043,121.792,490.16,123.575,491.918,123z"/>
<path fill-rule="evenodd" clip-rule="evenodd" fill="#515C66" stroke="#515C66" stroke-miterlimit="10" d="M491.918,123
	c-1.758,0.575-5.875-1.208-6,1c-2.484,1.516-6.069,1.931-10,2c0.451,2.784-5.451-0.784-5,2c6.575,0.242,10.906-1.761,18-1
	c0.775-0.224,1.973-0.027,2-1c-1.496-0.17-3.69,0.357-4-1C489.401,125.15,491.068,124.483,491.918,123z"/>
<path fill-rule="evenodd" clip-rule="evenodd" fill="#2B343F" stroke="#2B343F" stroke-miterlimit="10" d="M485.918,124
	c-5.284,0.049-10.22,0.447-14,2c1.334,0,2.666,0,4,0C479.849,125.931,483.434,125.516,485.918,124z"/>
<path fill-rule="evenodd" clip-rule="evenodd" fill="#989B9F" stroke="#989B9F" stroke-miterlimit="10" d="M413.918,134
	c0-0.333,0-0.667,0-1c-2.688-2.979-3.873-7.46-6-11c-5.073-4.593-7.139-12.194-14-15c2.953,14.047,10.239,23.761,19,32
	c0.224-0.776,0.027-1.973,1-2C413.918,136,413.918,135,413.918,134z"/>
<path fill-rule="evenodd" clip-rule="evenodd" fill="#192029" stroke="#192029" stroke-miterlimit="10" d="M533.918,143
	c1.75-3.583,3.635-7.032,6-10c0.393-4.274,3.695-5.639,4-10c0-0.667,0-1.333,0-2c-33.457,7.877-84.734,6.599-116,20
	c11.535,16.287,35.035,3.461,55,3c2.417-1.917,8.035-0.631,12-1c7.678-1.665,22.322-1.665,30,0C527.918,143,530.918,143,533.918,143
	z"/>
<path fill-rule="evenodd" clip-rule="evenodd" fill="#806B57" stroke="#806B57" stroke-miterlimit="10" d="M533.918,145
	c0-0.333,0-0.667,0-1c-0.666,0-1.334,0-2,0c-11.004,2.329-26.33,0.336-39,1c-0.334,0-0.666,0-1,0c0,0.333,0,0.667,0,1
	c-10.176-0.176-17.43,2.571-27,3c-3.201,1.131-6.633,2.034-11,2c-14.581,6.155-27.062-5.062-36-11c-0.737,5.071,2.479,6.187,4,9
	c20.336,15.224,47.014,2.721,84,1c10.292-0.479,18.82-0.57,27-4C532.734,145.149,533.309,145.057,533.918,145z"/>
<path fill-rule="evenodd" clip-rule="evenodd" fill="#3C4550" stroke="#3C4550" stroke-width="0.5" stroke-miterlimit="10" d="
	M351.918,142c0.619,2.714-1.27,7.936,1,9c-0.66-8.34,1.324-19.324-1-26c0,1,0,2,0,3C351.918,132.667,351.918,137.333,351.918,142z"
	/>
<path fill-rule="evenodd" clip-rule="evenodd" fill="#C0B2A5" stroke="#C0B2A5" stroke-miterlimit="10" d="M532.918,146
	c-0.184-0.851,0.391-0.943,1-1c-2.721,36.279-6.785,71.215-18,99c5.035-21.299,13.316-44.681,12-69c-8.062-1.586-7.871,8.212-9,13
	c-4.295,18.213-7.336,38.006-16,50c-40.918,2.567-61.486-18.214-67-48c18.527-15.983,45.697-32.205,76-36
	c6.52-0.816,16.538,2.185,21-4C532.918,148.667,532.918,147.333,532.918,146z M469.918,173c-9.196,26.626,28.35,39.815,41,23
	c6.812-9.056,7.403-34.02-6-37C491.591,156.036,480.761,167.585,469.918,173z"/>
<path fill-rule="evenodd" clip-rule="evenodd" fill="#2B343F" stroke="#2B343F" stroke-miterlimit="10" d="M405.918,190
	c3.502-3.832,4.952-9.714,9-13c2.305,2.696,0.355,9.645,1,14c0.333,0,0.667,0,1,0c2.254-2.874,0.818-3.637,1-9
	c-0.696-3.97,1.743-11.077-2-12c-5.961,3.039-4.472,13.528-11,16C405.089,187.496,404.561,189.69,405.918,190z"/>
<path fill-rule="evenodd" clip-rule="evenodd" fill="#192029" stroke="#192029" stroke-miterlimit="10" d="M405.918,192
	c0,0.333,0,0.667,0,1c0.333,0,0.667,0,1,0c3.094,2.573,1.311,10.022,6,11c0.454-4.879,1.447-9.219,3-13
	c-0.645-4.355,1.305-11.304-1-14c-4.048,3.286-5.498,9.168-9,13C405.918,190.667,405.918,191.333,405.918,192z"/>
<path fill-rule="evenodd" clip-rule="evenodd" fill="#3C4550" d="M415.918,191c-1.553,3.781-2.546,8.121-3,13
	c-4.689-0.978-2.906-8.427-6-11c-0.581,5.581,2.988,7.012,3,12c0.779,0.221,1.163,0.837,1,2c5.056-1.277,3.021-9.646,6-13
	c1.705-0.41-0.21-1.29,0-3C416.585,191,416.251,191,415.918,191z"/>
<path fill-rule="evenodd" clip-rule="evenodd" fill="#192029" d="M359.918,191c5.351,18.316,12.466,34.867,20,51
	c1.711,0.044,2.59-0.743,3-2c3.102-5.231,8.385-8.282,11-14c-1.158-3.509-3.936-5.398-4-10c0-0.667,0-1.333,0-2
	c-5.059-5.949-6.219-21.104-4-31c-0.563-5.305-15.812-1.815-16,3c-4.789-0.21-3.788-6.211-10-5
	C357.94,183.271,360.981,186.587,359.918,191z"/>
<path fill-rule="evenodd" clip-rule="evenodd" fill="#3C4550" stroke="#3C4550" stroke-miterlimit="10" d="M385.918,183
	c-2.219,9.896-1.059,25.051,4,31c-0.11-2.253-3.961-9.35-3-16c-2.295-2.039-0.362-8.305-1-12C385.918,185,385.918,184,385.918,183z"
	/>
<path fill-rule="evenodd" clip-rule="evenodd" fill="#515C66" d="M369.918,278c-1.357-1.772-3.484,12.331-4,18
	C368.15,290.899,369.462,284.878,369.918,278z"/>
<path fill-rule="evenodd" clip-rule="evenodd" fill="#E3E1DE" d="M470.918,305c0.785,4.118-1.535,5.132-1,9
	c2.629-2.705,1.98-8.686,5-11c2.28,11.154-3.689,21.254-7,30c4.652-3.347,13.463-2.537,18-6c0.096,1.571-0.134,3.467,2,3
	c0-1.333,0-2.667,0-4c-0.779-0.221-1.162-0.838-1-2c-2.864-0.136,0.864-6.864-2-7c-2.748-2.932-4.625-15.364-9-20
	c-1.439-0.534-2.44,3.897-3,1c-0.334,0-0.666,0-1,0c0,0.333,0,0.667,0,1C472.643,302.059,470.193,301.941,470.918,305z"/>
<path fill-rule="evenodd" clip-rule="evenodd" fill="#A8947F" d="M397.918,294c-6.732-6.213-19.505-16.777-21-25
	c-1.465-8.056,5.441-15.226,4-26c3.065-1.934,5.018-4.983,8-7c12.239,23.12,35.023,61.717,63,70c8.639,2.558,16.896,0.545,20-7
	c0.725,3.059-1.725,2.941-1,6c-1.836,4.165-2.332,9.667-4,14c0.279,2.279-0.24,3.759-2,4c-2.343,2.324-2.849,6.484-9,5
	c-12.242-3.092-21.59-9.077-32-14C417.27,307.978,406.994,302.376,397.918,294z M395.918,257c-6.122,12.6-6.938,24.697,3,35
	c5.822,6.036,18.382,12.448,28,18c15.799,9.12,38.354,24.359,41-2C430.326,308.495,414.975,278.348,395.918,257z"/>
<path fill-rule="evenodd" clip-rule="evenodd" fill="#707781" d="M367.918,319c0.766,2.901,1.582,5.752,4,7
	C371.152,323.099,370.336,320.248,367.918,319z"/>
<path fill-rule="evenodd" clip-rule="evenodd" fill="#515C66" d="M487.918,326c0,1.333,0,2.667,0,4c0.156,1.177-0.172,2.839,1,3
	c0.443-1.453,0.878,0.102,2,0C490.146,330.438,489.92,327.331,487.918,326z"/>
<path fill-rule="evenodd" clip-rule="evenodd" fill="#2B343F" d="M488.918,333c0.622,5.045,1.23,10.104,3,14
	c0.547-1.453-1.168-5.169,1-5c0-1,0-2,0-3c-0.798-1.868-1.671-3.662-2-6C489.796,333.102,489.361,331.547,488.918,333z"/>
<path fill-rule="evenodd" clip-rule="evenodd" fill="#192029" stroke="#192029" stroke-miterlimit="10" d="M491.918,347
	c0.645,6.021,3.074,10.259,3,17c1.165,0.168,1.086,1.581,1,3c0.334,0,0.666,0,1,0c1.277,4.611-5.008,1.658-3,7c0,2,0,4,0,6
	c2.256,0.745,0.391,5.609,1,8c1.172,0.161,0.844,1.823,1,3c2.326,7.674,0.339,19.661,1,29c-0.325,3.675,0.854,8.854-1,11
	c-0.717,12.283-2.941,23.059-5,34c-1.349,2.603-6.981-0.633-7,1c3.572,10.762,5.734,22.932,10,33c3.76-44.556,20.215-97.914,4-138
	c-1.72-6.28-4.219-11.78-5-19C490.75,341.831,492.465,345.547,491.918,347z"/>
<path fill-rule="evenodd" clip-rule="evenodd" fill="#192029" stroke="#192029" stroke-miterlimit="10" d="M261.918,369
	c1.948-1.718,2.155-5.178,2-9C262.42,362.169,262.213,365.629,261.918,369z"/>
<path fill-rule="evenodd" clip-rule="evenodd" fill="#3C4550" d="M460.918,374c0.219-1.257,1.558-2.044-1-2
	c0.044,4.623-0.559,9.892,2,12C461.646,380.604,462.692,375.893,460.918,374z"/>
<path fill-rule="evenodd" clip-rule="evenodd" fill="#FFFFFF" d="M482.918,388c-0.424,2.09,0.686,2.648,1,4
	c4.159-0.159,1.998,6.002,5,7c-1.482-8.184,1.16-20.494-8-21C480.673,382.245,483.533,383.385,482.918,388z"/>
<path fill-rule="evenodd" clip-rule="evenodd" fill="#707781" d="M494.918,388c0.639,3.695-1.295,9.962,1,12c0-3,0-6,0-9
	C495.762,389.823,496.09,388.161,494.918,388z"/>
<path fill-rule="evenodd" clip-rule="evenodd" fill="#2B343F" d="M574.918,386c0.027,7.973,0.412,15.587,2,22c0-0.333,0-0.667,0-1
	C576.81,399.441,576.473,392.111,574.918,386z"/>
<path fill-rule="evenodd" clip-rule="evenodd" fill="#515C66" d="M495.918,391c0,3,0,6,0,9c0,4.667,0,9.333,0,14c0,2,0,4,0,6
	c0.334,0,0.666,0,1,0C496.257,410.661,498.244,398.674,495.918,391z"/>
<path fill-rule="evenodd" clip-rule="evenodd" fill="#2E8EC7" stroke="#2E8EC7" stroke-width="0.5" stroke-miterlimit="10" d="
	M495.918,424c-0.128,7.767-5.918,8.823-11,7c-0.188,2.812-1.74,4.261-5,4c-7.138-5.862-13.689-12.311-15-24
	c1.547,13.119,3.788,25.545,8,36c7.017,1.624,12.092,0.806,18,2c3.191-4.476,2.703-12.631,5-18c1.854-2.146,0.675-7.325,1-11
	c-0.334,0-0.666,0-1,0C495.918,421.333,495.918,422.667,495.918,424z"/>
<path fill-rule="evenodd" clip-rule="evenodd" fill="#2B343F" d="M577.918,426c2.305,2.695,0.355,9.645,1,14c0,1,0,2,0,3
	c0.334,0,0.666,0,1,0c-0.358-12.642,0.997-26.997-3-36c0,0.333,0,0.667,0,1C577.871,413.38,578.16,419.425,577.918,426z"/>
<path fill-rule="evenodd" clip-rule="evenodd" fill="#2B343F" d="M578.918,443c0.235,4.098,0.49,8.177,2,11
	c0.738-4.738-1.125-6.875-1-11C579.584,443,579.252,443,578.918,443z"/>
<path fill-rule="evenodd" clip-rule="evenodd" fill="#2B343F" d="M582.918,463c-0.295-3.371-0.502-6.831-2-9
	C580.763,457.822,580.97,461.281,582.918,463z"/>
<path fill-rule="evenodd" clip-rule="evenodd" fill="#192029" d="M243.918,457c-1.55,2.45-1.491,6.509-2,10
	C244.082,465.164,244.023,461.104,243.918,457z"/>
<path fill-rule="evenodd" clip-rule="evenodd" fill="#192029" d="M564.918,481c1.862-0.138,3.342-0.658,4-2
	c-1.232-19.796-8.769-41.877-15-60c-3,0-6,0-9,0c0.014,18.135,2.315,48.197,9,66C557.982,484.064,560.166,481.248,564.918,481z"/>
<path fill-rule="evenodd" clip-rule="evenodd" fill="#707781" d="M441.918,50c-6.666,0-13.334,0-20,0c-1.162-0.163-1.779,0.221-2,1
	c7.666,0,15.334,0,23,0C443.102,50.149,442.527,50.057,441.918,50z"/>
<path fill-rule="evenodd" clip-rule="evenodd" fill="#2B343F" d="M577.918,426c0.645,4.355-1.305,11.305,1,14
	C578.273,435.645,580.223,428.695,577.918,426z"/>
</svg>
