<?xml version="1.0" encoding="UTF-8" standalone="no"?>
<!-- Created with Inkscape (http://www.inkscape.org/) -->

<svg
   xmlns:dc="http://purl.org/dc/elements/1.1/"
   xmlns:cc="http://creativecommons.org/ns#"
   xmlns:rdf="http://www.w3.org/1999/02/22-rdf-syntax-ns#"
   xmlns:svg="http://www.w3.org/2000/svg"
   xmlns="http://www.w3.org/2000/svg"
   xmlns:sodipodi="http://sodipodi.sourceforge.net/DTD/sodipodi-0.dtd"
   xmlns:inkscape="http://www.inkscape.org/namespaces/inkscape"
   width="40.08123"
   height="40.082993"
   id="svg12081"
   version="1.1"
   inkscape:version="0.48.5 r10040"
   sodipodi:docname="PhysicalTechnologyComponent.svg">
  <defs
     id="defs12083" />
  <sodipodi:namedview
     id="base"
     pagecolor="#ffffff"
     bordercolor="#666666"
     borderopacity="1.0"
     inkscape:pageopacity="0.0"
     inkscape:pageshadow="2"
     inkscape:zoom="2.8"
     inkscape:cx="23.038837"
     inkscape:cy="22.417247"
     inkscape:document-units="px"
     inkscape:current-layer="layer1"
     showgrid="false"
     fit-margin-top="0"
     fit-margin-left="0"
     fit-margin-right="0"
     fit-margin-bottom="0"
     inkscape:window-width="1897"
     inkscape:window-height="852"
     inkscape:window-x="527"
     inkscape:window-y="517"
     inkscape:window-maximized="0"
     showguides="true"
     inkscape:guide-bbox="true" />
  <metadata
     id="metadata12086">
    <rdf:RDF>
      <cc:Work
         rdf:about="">
        <dc:format>image/svg+xml</dc:format>
        <dc:type
           rdf:resource="http://purl.org/dc/dcmitype/StillImage" />
        <dc:title />
      </cc:Work>
    </rdf:RDF>
  </metadata>
  <g
     inkscape:label="Calque 1"
     inkscape:groupmode="layer"
     id="layer1"
     transform="translate(-438.11179,-322.29757)">
    <g
       id="g3896"
       transform="translate(-72.478445,17.425132)">
      <path
         inkscape:connector-curvature="0"
         id="path3874"
         d="m 530.33329,306.37267 c -0.66666,-0.005 -1.33007,0.0284 -2,0.0937 -0.35639,2.43829 -1.92012,4.60536 -4.0625,5.46875 -2.14143,0.86297 -4.78142,0.40819 -6.75,-1.09375 -1.05188,0.83308 -2.00199,1.76969 -2.84375,2.78125 1.48562,1.97365 1.74218,3.91526 0.84375,6.03125 -0.90363,2.10335 -2.35031,3.71139 -4.8125,4.03125 -0.14702,1.30148 -0.15591,2.64513 -0.0312,3.96875 2.45816,0.35399 4.47612,1.5046 5.34375,3.625 0.86769,2.12035 0.38879,4.7329 -1.125,6.6875 0.84061,1.03509 1.79307,1.98093 2.8125,2.8125 1.99035,-1.47446 3.96823,-1.75769 6.09375,-0.875 2.13011,0.89546 3.33468,2.49476 3.65625,4.9375 1.31416,0.14328 2.65503,0.14916 4,0.0312 0.35652,-2.43818 1.921,-4.57456 4.0625,-5.4375 2.14231,-0.86342 4.75027,-0.40798 6.71875,1.09375 1.04718,-0.84576 2.00143,-1.76948 2.84375,-2.78125 -1.48559,-1.97368 -1.74215,-3.94658 -0.84375,-6.0625 0.90363,-2.10335 2.34518,-3.72388 4.8125,-4.03125 0.14195,-1.31397 0.1631,-2.63272 0.0312,-3.96875 -2.45234,-0.34169 -4.47606,-1.47306 -5.34375,-3.59375 -0.86769,-2.12069 -0.23078,-4.327 1.28125,-6.28125 -0.84,-1.03531 -1.76185,-2.01224 -2.78125,-2.84375 -1.99032,1.47438 -4.15578,1.35082 -6.28125,0.46875 -2.13062,-0.89528 -3.33513,-2.49454 -3.65625,-4.9375 -0.65708,-0.0715 -1.30209,-0.11966 -1.96875,-0.125 z m -0.6875,11.25 c 3.43061,-0.0947 6.67721,2.04522 7.84375,5.5625 1.43575,4.16865 -0.82293,8.65077 -5.03125,10.09375 -4.20782,1.443 -8.783,-0.80015 -10.21875,-4.96875 -1.43574,-4.16862 0.8234,-8.80703 5.03125,-10.25 0.78906,-0.27056 1.58332,-0.41566 2.375,-0.4375 z"
         style="fill:#d2d2d2;fill-opacity:1;fill-rule:nonzero;stroke:none" />
      <path
         transform="translate(436.05224,326.31048)"
         id="path3870"
         d="m 95.78125,-21.4375 c -0.666659,-0.0053 -1.330075,0.02839 -2,0.09375 -0.35639,2.43829 -1.92012,4.60536 -4.0625,5.46875 -2.14143,0.86297 -4.78142,0.40819 -6.75,-1.09375 -1.05188,0.83308 -2.00199,1.76969 -2.84375,2.78125 1.48562,1.97365 1.74218,3.91526 0.84375,6.03125 -0.90363,2.10335 -2.35031,3.71139 -4.8125,4.03125 -0.14702,1.30148 -0.15591,2.64513 -0.03125,3.96875 2.45816,0.35399 4.47612,1.5046 5.34375,3.625 0.86769,2.12035 0.38879,4.7329 -1.125,6.6875 0.84061,1.03509 1.79307,1.98093 2.8125,2.8125 1.99035,-1.47446 3.96823,-1.75769 6.09375,-0.875 2.13011,0.89546 3.33468,2.49476 3.65625,4.9375 1.31416,0.14328 2.65503,0.14916 4,0.03125 0.35652,-2.43818 1.921,-4.57456 4.0625,-5.4375 2.14231,-0.86342 4.75027,-0.40798 6.71875,1.09375 1.04718,-0.84576 2.00143,-1.76948 2.84375,-2.78125 -1.48559,-1.97368 -1.74215,-3.94658 -0.84375,-6.0625 0.90363,-2.10335 2.34518,-3.72388 4.8125,-4.03125 0.14195,-1.31397 0.1631,-2.63272 0.0312,-3.96875 -2.45234,-0.34169 -4.47606,-1.47306 -5.34375,-3.59375 -0.86769,-2.12069 -0.23078,-4.327 1.28125,-6.28125 -0.84,-1.03531 -1.76185,-2.01224 -2.78125,-2.84375 -1.99032,1.47438 -4.15578,1.35082 -6.28125,0.46875 -2.13062,-0.89528 -3.33513,-2.49454 -3.65625,-4.9375 -0.65708,-0.0715 -1.302091,-0.119661 -1.96875,-0.125 z m -0.6875,11.25 c 3.430615,-0.09466 6.67721,2.04522 7.84375,5.5625 1.43575,4.16865 -0.82293,8.65077 -5.03125,10.09375 C 93.69843,6.91175 89.12325,4.6686 87.6875,0.5 c -1.43574,-4.16862 0.8234,-8.80703 5.03125,-10.25 0.789062,-0.270562 1.58332,-0.415655 2.375,-0.4375 z"
         style="fill:#6ec544;fill-opacity:1;fill-rule:nonzero;stroke:none"
         inkscape:connector-curvature="0" />
      <path
         sodipodi:nodetypes="ccccccccccccccccsc"
         inkscape:connector-curvature="0"
         style="fill:#60b338;fill-opacity:1;fill-rule:nonzero;stroke:none"
         d="m 76.03901,-2.164598 c -0.0062,0.6744984 0.02267,1.33603394 0.08599,2.008348 2.45816,0.35399 4.47612,1.5046 5.34375,3.625 0.86769,2.12035 0.38879,4.7329 -1.125,6.6875 0.84061,1.03509 1.79307,1.98093 2.8125,2.8125 1.99035,-1.47446 3.96823,-1.75769 6.09375,-0.875 2.13011,0.89546 3.33468,2.49476 3.65625,4.9375 1.31416,0.14328 2.65503,0.14916 4,0.03125 0.35652,-2.43818 1.921,-4.57456 4.0625,-5.4375 2.14231,-0.86342 4.75027,-0.40798 6.71875,1.09375 1.04718,-0.84576 2.00143,-1.76948 2.84375,-2.78125 -1.48559,-1.97368 -1.74215,-3.94658 -0.84375,-6.0625 0.90363,-2.10335 2.34518,-3.72388 4.8125,-4.03125 0.0716,-0.66238541 0.11242,-1.3419317 0.11845,-2.008348 m -11.24961,0 c 0.0514,3.3533749 -2.07327,6.4711911 -5.46259,7.633348 C 93.69843,6.91175 89.123235,4.6686052 87.6875,0.5 87.38308,-0.383872 87.24477,-1.2734232 87.255924,-2.164598"
         transform="translate(436.05224,326.31048)"
         id="path3880" />
    </g>
  </g>
</svg>
