<?xml version="1.0" encoding="UTF-8" standalone="no"?>
<!-- Created with Inkscape (http://www.inkscape.org/) -->

<svg
   xmlns:dc="http://purl.org/dc/elements/1.1/"
   xmlns:cc="http://creativecommons.org/ns#"
   xmlns:rdf="http://www.w3.org/1999/02/22-rdf-syntax-ns#"
   xmlns:svg="http://www.w3.org/2000/svg"
   xmlns="http://www.w3.org/2000/svg"
   xmlns:sodipodi="http://sodipodi.sourceforge.net/DTD/sodipodi-0.dtd"
   xmlns:inkscape="http://www.inkscape.org/namespaces/inkscape"
   width="40.000404"
   height="40"
   id="svg7097"
   version="1.1"
   inkscape:version="0.48.5 r10040"
   sodipodi:docname="actor.svg">
  <defs
     id="defs7099" />
  <sodipodi:namedview
     id="base"
     pagecolor="#ffffff"
     bordercolor="#666666"
     borderopacity="1.0"
     inkscape:pageopacity="0.0"
     inkscape:pageshadow="2"
     inkscape:zoom="0.98994949"
     inkscape:cx="-188.51974"
     inkscape:cy="76.415907"
     inkscape:document-units="px"
     inkscape:current-layer="layer1"
     showgrid="false"
     fit-margin-top="0"
     fit-margin-left="0"
     fit-margin-right="0"
     fit-margin-bottom="0"
     inkscape:window-width="1215"
     inkscape:window-height="715"
     inkscape:window-x="1055"
     inkscape:window-y="371"
     inkscape:window-maximized="0"
     showguides="true"
     inkscape:guide-bbox="true" />
  <metadata
     id="metadata7102">
    <rdf:RDF>
      <cc:Work
         rdf:about="">
        <dc:format>image/svg+xml</dc:format>
        <dc:type
           rdf:resource="http://purl.org/dc/dcmitype/StillImage" />
        <dc:title />
      </cc:Work>
    </rdf:RDF>
  </metadata>
  <g
     inkscape:label="Calque 1"
     inkscape:groupmode="layer"
     id="layer1"
     transform="translate(-587.44651,-715.9832)">
    <g
       id="g8076"
       transform="matrix(0.96448747,0,0,0.96448747,-291.47543,-45.319267)">
      <g
         style="fill:#d2d2d2;fill-opacity:1"
         inkscape:export-ydpi="89.999054"
         inkscape:export-xdpi="89.999054"
         inkscape:export-filename="/Volumes/partage/private/marketing/Design/Produits/ObeoSmartEA/Togaf/png/all/actor.png"
         transform="matrix(0.15677332,0,0,0.15144119,853.56702,792.3065)"
         id="g7268">
        <g
           style="fill:#d2d2d2;fill-opacity:1"
           inkscape:export-ydpi="11.28878"
           inkscape:export-xdpi="11.28878"
           inkscape:export-filename="/Volumes/partage/private/marketing/Design/Produits/Sirius/png/man_32.png"
           id="g7270">
          <path
             sodipodi:nodetypes="csccccsccccscsccsc"
             inkscape:connector-curvature="0"
             d="m 567.90313,185.53891 c -33.4352,-12.1813 -45.39726,-26.51434 -45.39726,-48.52471 0,-13.1894 11.47476,-8.90494 15.95232,-33.09948 1.8733,-9.997067 10.8876,-0.16818 12.61788,-23.102437 0,-9.07299 -4.93971,-11.34121 -4.93971,-11.34121 0,0 2.52879,-13.52544 3.5034,-23.94254 1.1931,-13.02136 -7.48529,-46.4568902 -53.92547,-46.4568902 -46.43139,0 -55.14332,33.4355302 -53.92505,46.4568902 0.97417,10.4171 3.50296,23.94254 3.50296,23.94254 0,0 -4.93973,2.26822 -4.93973,11.34121 1.73075,22.934387 10.74503,13.10537 12.61833,23.102437 4.47756,24.19454 15.32304,19.91008 15.32304,33.09948 0,22.01037 -11.33278,36.34341 -44.76844,48.52471 -33.56983,12.26528 -55.37016,20.69861 -55.37016,29.18353 0,8.48484 0,39.50171 0,39.50171 l 255.11809,0 c 0,0 0,-31.01687 0,-39.50171 0,-8.48492 -21.80035,-16.91825 -55.3702,-29.18353"
             style="fill:#d2d2d2;fill-opacity:1;fill-rule:nonzero;stroke:none"
             id="path7272" />
          <path
             sodipodi:nodetypes="cssccsscc"
             inkscape:connector-curvature="0"
             d="m 531.90313,163.5389 c 15.92247,21.6274 91.87528,34.36486 91.3702,51.18354 -0.12735,4.24051 0,2.02364 0,10.74424 0,8.72061 -20,28.38062 -20,28.38062 l -215.11809,0 c 0,0 -20,-19.66001 -20,-28.38062 0,-8.7206 0,-6.50182 0,-10.74424 0,-8.48492 80.77,-32.38606 91.37017,-51.18354 25.36834,23.52394 51.15632,22.62639 72.37772,0 z"
             style="fill:#d2d2d2;fill-opacity:1;fill-rule:nonzero;stroke:none"
             id="path7274" />
          <path
             sodipodi:nodetypes="cccccsscsssccc"
             inkscape:connector-curvature="0"
             id="path7276"
             d="m 445.78938,73.769474 c 1.31756,-1.756746 -0.79399,-0.315053 -3.39632,-5.612402 C 438.74122,50.294047 428.99625,15.0747 459.43694,-1.732 c 47.76132,-22.78746 92.04457,5.0573029 90.19329,48.64577 -1.76788,16.170177 -1.34166,19.523769 -8.75345,27.926388 1.65191,-2.145951 -5.96808,-36.444157 -13.79781,-44.898176 -10.1635,-10.97387 -7.09096,0.387162 -8.1605,-1.392307 -3.64784,-6.069137 -7.61704,-9.246016 -11.73967,-11.042003 0.48194,6.653529 1.60809,13.544249 -0.28073,10.245671 -3.21674,-5.617618 -23.25719,-14.519286 -18.83286,-9.295438 2.80224,3.308629 4.09372,12.2227 3.05381,10.843939 -7.6944,-10.201575 -20.94634,-6.037529 -25.68243,-4.531289 -7.98586,3.520797 -9.43386,-1.835007 -7.57578,23.703051 -4.21302,4.266354 -10.70103,21.991886 -12.07143,25.295868 z"
             style="fill:#d2d2d2;fill-opacity:1;stroke:none" />
          <path
             id="path7278"
             style="fill:#d2d2d2;fill-opacity:1;fill-rule:nonzero;stroke:none"
             d="m 532.96732,163.5389 c 10.07764,22.45347 90.29857,26.00795 90.30601,49.18341 l 0,41.12373 -255.11809,0.001 0,-41.12473 c 0.35714,-17.41349 77.07735,-25.13266 90.64719,-49.18367 14.01254,26.26353 21.28538,42.66513 34.39217,69.60296 3.01312,3.95605 2.02625,5.07735 5.03937,0"
             inkscape:connector-curvature="0"
             sodipodi:nodetypes="cccccccc" />
        </g>
      </g>
      <g
         id="g19649"
         transform="matrix(0.15677332,0,0,0.15144119,855.04414,790.82939)"
         inkscape:export-filename="/Volumes/partage/private/marketing/Design/Produits/ObeoSmartEA/Togaf/png/all/actor.png"
         inkscape:export-xdpi="89.999054"
         inkscape:export-ydpi="89.999054">
        <g
           id="g19911"
           inkscape:export-filename="/Volumes/partage/private/marketing/Design/Produits/Sirius/png/man_32.png"
           inkscape:export-xdpi="11.28878"
           inkscape:export-ydpi="11.28878">
          <path
             id="path8747-8-7"
             style="fill:#ffe7e6;fill-opacity:1;fill-rule:nonzero;stroke:none"
             d="m 567.90313,185.53891 c -33.4352,-12.1813 -45.39803,-26.51434 -45.39803,-48.52471 0,-13.1894 11.47553,-8.90494 15.95309,-33.09948 1.8733,-9.997067 10.8876,-0.16818 12.61788,-23.102437 0,-9.07299 -4.93971,-11.34121 -4.93971,-11.34121 0,0 2.52879,-13.52544 3.5034,-23.94254 1.1931,-13.02136 -7.48529,-46.4568902 -53.92547,-46.4568902 -46.43139,0 -55.14332,33.4355302 -53.92505,46.4568902 0.97417,10.4171 3.50296,23.94254 3.50296,23.94254 0,0 -4.93973,2.26822 -4.93973,11.34121 1.73075,22.934387 10.74503,13.10537 12.61833,23.102437 4.47756,24.19454 15.32353,19.91008 15.32353,33.09948 0,22.01037 -10.69426,36.34341 -44.12992,48.52471 -33.56983,12.26528 -56.00917,20.69861 -56.00917,29.18353 0,8.48484 0,39.31263 0,39.31263 l 255.11809,0 c 0,0 0,-30.82779 0,-39.31263 0,-8.48492 -21.80035,-16.91825 -55.3702,-29.18353"
             inkscape:connector-curvature="0"
             sodipodi:nodetypes="csccccsccccscsccsc" />
          <path
             id="path8747-2-2"
             style="fill:#ffffff;fill-opacity:1;fill-rule:nonzero;stroke:none"
             d="m 531.89765,163.5389 c 15.92247,21.6274 91.88076,34.36486 91.37568,51.18354 -0.12735,4.24051 0,2.02364 0,10.74424 0,8.72061 -20,28.56839 -20,28.56839 l -215.11809,0 c 0,0 -20,-19.84778 -20,-28.56839 0,-8.7206 0,-6.50182 0,-10.74424 0,-8.48492 80.77,-32.38606 91.37017,-51.18354 25.36834,23.52394 51.15084,22.62639 72.37224,0 z"
             inkscape:connector-curvature="0"
             sodipodi:nodetypes="cssccsscc" />
          <path
             style="fill:#d39b00;fill-opacity:1;stroke:none"
             d="m 445.78938,73.769474 c 1.31756,-1.756746 -0.79399,-0.315053 -3.39632,-5.612402 C 438.74122,50.294047 428.99625,15.0747 459.43694,-1.732 c 47.76132,-22.78746 92.04457,5.0573029 90.19329,48.64577 -1.76788,16.170177 -1.34166,19.523769 -8.75345,27.926388 1.65191,-2.145951 -5.96808,-36.444157 -13.79781,-44.898176 -10.1635,-10.97387 -7.09096,0.387162 -8.1605,-1.392307 -3.64784,-6.069137 -7.61704,-9.246016 -11.73967,-11.042003 0.48194,6.653529 1.60809,13.544249 -0.28073,10.245671 -3.21674,-5.617618 -23.25719,-14.519286 -18.83286,-9.295438 2.80224,3.308629 4.09372,12.2227 3.05381,10.843939 -7.6944,-10.201575 -20.94634,-6.037529 -25.68243,-4.531289 -7.98586,3.520797 -9.43386,-1.835007 -7.57578,23.703051 -4.21302,4.266354 -10.70103,21.991886 -12.07143,25.295868 z"
             id="path15556-1"
             inkscape:connector-curvature="0"
             sodipodi:nodetypes="cccccsscsssccc" />
          <path
             sodipodi:nodetypes="cccccccc"
             inkscape:connector-curvature="0"
             d="m 532.96288,163.5389 c 10.07764,22.45347 90.30301,26.00795 90.31045,49.18341 l 0,41.31276 -255.11809,0 0,-41.31276 c 0.35714,-17.41349 77.07658,-25.13266 90.64642,-49.18367 14.01254,26.26353 21.28615,42.66513 34.39294,69.60296 3.01312,3.95605 2.02625,5.07735 5.03937,0"
             style="fill:#ffcd44;fill-opacity:1;fill-rule:nonzero;stroke:none"
             id="path19619" />
          <path
             sodipodi:nodetypes="ccccc"
             inkscape:connector-curvature="0"
             d="m 531.89765,195.67855 -17.92523,58.35652 -23.759,0 -30.68801,-58.35652 z"
             style="fill:#f3f7ff;fill-opacity:1;fill-rule:nonzero;stroke:none"
             id="path8012" />
          <path
             id="path8008"
             style="fill:#ffbc02;fill-opacity:1;fill-rule:nonzero;stroke:none"
             d="m 517.02586,195.67855 87.32353,0 c 10.38713,4.462 18.92171,10.08854 18.92394,17.04372 l 0,41.3128 -255.11809,0 0,-41.3128 c 0.13258,-6.4643 11.3042,-11.91984 25.12507,-17.04372 l 81.83791,0 c 6.08117,11.63339 11.32347,23.58405 18.07638,37.46301 3.01312,3.95605 2.02625,5.07735 5.03937,0"
             inkscape:connector-curvature="0"
             sodipodi:nodetypes="cccccccccc" />
        </g>
      </g>
    </g>
  </g>
</svg>
