<?xml version="1.0" encoding="UTF-8" standalone="no"?>
<!-- Created with Inkscape (http://www.inkscape.org/) -->

<svg
   xmlns:dc="http://purl.org/dc/elements/1.1/"
   xmlns:cc="http://creativecommons.org/ns#"
   xmlns:rdf="http://www.w3.org/1999/02/22-rdf-syntax-ns#"
   xmlns:svg="http://www.w3.org/2000/svg"
   xmlns="http://www.w3.org/2000/svg"
   xmlns:sodipodi="http://sodipodi.sourceforge.net/DTD/sodipodi-0.dtd"
   xmlns:inkscape="http://www.inkscape.org/namespaces/inkscape"
   width="39.484558"
   height="31.9375"
   id="svg12081"
   version="1.1"
   inkscape:version="0.48.5 r10040"
   sodipodi:docname="Event.svg">
  <defs
     id="defs12083" />
  <sodipodi:namedview
     id="base"
     pagecolor="#ffffff"
     bordercolor="#666666"
     borderopacity="1.0"
     inkscape:pageopacity="0.0"
     inkscape:pageshadow="2"
     inkscape:zoom="2.8"
     inkscape:cx="32.279949"
     inkscape:cy="5.8049205"
     inkscape:document-units="px"
     inkscape:current-layer="layer1"
     showgrid="false"
     fit-margin-top="0"
     fit-margin-left="0"
     fit-margin-right="0"
     fit-margin-bottom="0"
     inkscape:window-width="1137"
     inkscape:window-height="648"
     inkscape:window-x="1241"
     inkscape:window-y="516"
     inkscape:window-maximized="0" />
  <metadata
     id="metadata12086">
    <rdf:RDF>
      <cc:Work
         rdf:about="">
        <dc:format>image/svg+xml</dc:format>
        <dc:type
           rdf:resource="http://purl.org/dc/dcmitype/StillImage" />
        <dc:title />
      </cc:Work>
    </rdf:RDF>
  </metadata>
  <g
     inkscape:label="Calque 1"
     inkscape:groupmode="layer"
     id="layer1"
     transform="translate(-436.49024,-331.09375)">
    <g
       id="g3770">
      <path
         sodipodi:nodetypes="csccssscc"
         style="fill:#d2d2d2;fill-opacity:1;stroke:#d2d2d2;stroke-width:3.75;stroke-miterlimit:4;stroke-opacity:1;stroke-dasharray:none"
         d="m 436.49024,334.48071 c 3.80233,0 7.99659,7.77408 7.99659,13.34206 0,5.56805 -4.19448,13.34234 -7.99659,13.34234 l 25.68658,0 c 0.0282,7.2e-4 0.061,0 0.089,0 3.80209,0 10.56251,-5.59738 10.34299,-13.34234 -0.22747,-8.01704 -6.5409,-13.34206 -10.34299,-13.34206 -0.0282,0 -0.061,-7.5e-4 -0.089,0 z"
         id="path3768"
         inkscape:connector-curvature="0" />
      <path
         inkscape:connector-curvature="0"
         id="path6184"
         d="m 437.99037,332.98076 c 3.80233,0 7.99659,7.77408 7.99659,13.34206 0,5.56805 -4.19448,13.34234 -7.99659,13.34234 l 25.68658,0 c 0.0282,7.2e-4 0.061,0 0.089,0 3.80209,0 10.56251,-5.59738 10.34299,-13.34234 -0.22747,-8.01704 -6.5409,-13.34206 -10.34299,-13.34206 -0.0282,0 -0.061,-7.5e-4 -0.089,0 z"
         style="fill:#ffffff;fill-opacity:1;stroke:#ffcd44;stroke-width:3.75;stroke-miterlimit:4;stroke-opacity:1;stroke-dasharray:none"
         sodipodi:nodetypes="csccssscc" />
      <path
         sodipodi:nodetypes="cccsc"
         style="fill:#f3f7ff;fill-opacity:1;stroke:#ffbc02;stroke-width:3.75;stroke-miterlimit:4;stroke-opacity:1;stroke-dasharray:none"
         d="m 445.98696,346.32282 c 0,5.56805 -4.19448,13.34234 -7.99659,13.34234 l 25.68658,0 c 0.0282,7.2e-4 0.061,0 0.089,0 3.80209,0 10.56251,-5.59738 10.34299,-13.34234"
         id="path6191"
         inkscape:connector-curvature="0" />
    </g>
  </g>
</svg>
