<?xml version="1.0" encoding="UTF-8" standalone="no"?>
<!-- Created with Inkscape (http://www.inkscape.org/) -->

<svg
   xmlns:dc="http://purl.org/dc/elements/1.1/"
   xmlns:cc="http://creativecommons.org/ns#"
   xmlns:rdf="http://www.w3.org/1999/02/22-rdf-syntax-ns#"
   xmlns:svg="http://www.w3.org/2000/svg"
   xmlns="http://www.w3.org/2000/svg"
   xmlns:sodipodi="http://sodipodi.sourceforge.net/DTD/sodipodi-0.dtd"
   xmlns:inkscape="http://www.inkscape.org/namespaces/inkscape"
   width="41.503468"
   height="25.912329"
   id="svg12081"
   version="1.1"
   inkscape:version="0.48.5 r10040"
   sodipodi:docname="InformationSystemService.svg">
  <defs
     id="defs12083">
    <inkscape:path-effect
       is_visible="true"
       id="path-effect6123"
       effect="spiro" />
    <inkscape:path-effect
       is_visible="true"
       id="path-effect6125"
       effect="spiro" />
    <inkscape:path-effect
       is_visible="true"
       id="path-effect6123-2"
       effect="spiro" />
    <inkscape:path-effect
       is_visible="true"
       id="path-effect6125-0"
       effect="spiro" />
    <inkscape:path-effect
       is_visible="true"
       id="path-effect6121"
       effect="spiro" />
    <inkscape:path-effect
       effect="spiro"
       id="path-effect6212"
       is_visible="true" />
  </defs>
  <sodipodi:namedview
     id="base"
     pagecolor="#ffffff"
     bordercolor="#666666"
     borderopacity="1.0"
     inkscape:pageopacity="0.0"
     inkscape:pageshadow="2"
     inkscape:zoom="3.959798"
     inkscape:cx="-12.91915"
     inkscape:cy="2.7973748"
     inkscape:document-units="px"
     inkscape:current-layer="layer1"
     showgrid="false"
     fit-margin-top="0"
     fit-margin-left="0"
     fit-margin-right="0"
     fit-margin-bottom="0"
     inkscape:window-width="1137"
     inkscape:window-height="648"
     inkscape:window-x="1241"
     inkscape:window-y="516"
     inkscape:window-maximized="0" />
  <metadata
     id="metadata12086">
    <rdf:RDF>
      <cc:Work
         rdf:about="">
        <dc:format>image/svg+xml</dc:format>
        <dc:type
           rdf:resource="http://purl.org/dc/dcmitype/StillImage" />
        <dc:title />
      </cc:Work>
    </rdf:RDF>
  </metadata>
  <g
     inkscape:label="Calque 1"
     inkscape:groupmode="layer"
     id="layer1"
     transform="translate(-434.55416,-334.11138)">
    <g
       id="g3780">
      <g
         id="g4277"
         transform="matrix(2.4982275,0,0,2.4982275,-2520.1774,-932.08831)">
        <g
           id="g4279"
           transform="matrix(0.41524122,0,0,0.41524122,690.43676,305.97043)">
          <path
             style="fill:#ffffff;fill-opacity:1;stroke:#93b8ff;stroke-width:3.63655806;stroke-miterlimit:4;stroke-opacity:1;stroke-dasharray:none"
             d="m 1195.5948,487.01308 c -2.9995,0 -8.2159,3.08856 -8.2159,9.94589 0,7.09013 5.2166,9.944 8.2159,9.944 0.023,0 -0.022,5.7e-4 0,0 l 18.903,0 c 0.025,0 -0.025,7.5e-4 0,0 2.9795,-0.0869 7.8037,-2.85387 7.8037,-9.944 0,-6.85733 -4.8242,-9.85903 -7.8037,-9.94589 l 0,0 -18.903,0 c -0.022,-6.2e-4 0.023,0 0,0 z"
             id="path4281"
             inkscape:connector-curvature="0"
             sodipodi:nodetypes="ssscscscccs" />
          <path
             sodipodi:nodetypes="cscscc"
             inkscape:connector-curvature="0"
             id="path4283"
             d="m 1187.3789,496.95897 c 0,7.09013 5.2166,9.944 8.2159,9.944 0.023,0 -0.022,5.7e-4 0,0 l 18.903,0 c 0.025,0 -0.025,7.5e-4 0,0 2.9795,-0.0869 7.8037,-2.85387 7.8037,-9.944"
             style="fill:#f3f7ff;fill-opacity:1;stroke:#74a3ff;stroke-width:3.63599992;stroke-miterlimit:4;stroke-opacity:1;stroke-dasharray:none" />
          <path
             sodipodi:nodetypes="ssscscscccs"
             inkscape:connector-curvature="0"
             id="path3773"
             d="m 1195.5948,487.01308 c -2.9995,0 -8.2159,3.08856 -8.2159,9.94589 0,7.09013 5.2166,9.944 8.2159,9.944 0.023,0 -0.022,5.7e-4 0,0 l 18.903,0 c 0.025,0 -0.025,7.5e-4 0,0 2.9795,-0.0869 7.8037,-2.85387 7.8037,-9.944 0,-6.85733 -4.8242,-9.85903 -7.8037,-9.94589 l 0,0 -18.903,0 c -0.022,-6.2e-4 0.023,0 0,0 z"
             style="fill:#d2d2d2;fill-opacity:1;stroke:#d2d2d2;stroke-width:3.63655806;stroke-miterlimit:4;stroke-opacity:1;stroke-dasharray:none" />
        </g>
      </g>
      <g
         transform="matrix(2.4982275,0,0,2.4982275,-2518.6774,-933.58872)"
         id="g6319">
        <g
           transform="matrix(0.41524122,0,0,0.41524122,690.43676,305.97043)"
           id="g6321">
          <path
             sodipodi:nodetypes="ssscscscccs"
             inkscape:connector-curvature="0"
             id="path6323"
             d="m 1195.5948,487.01308 c -2.9995,0 -8.2159,3.08856 -8.2159,9.94589 0,7.09013 5.2166,9.944 8.2159,9.944 0.023,0 -0.022,5.7e-4 0,0 l 18.903,0 c 0.025,0 -0.025,7.5e-4 0,0 2.9795,-0.0869 7.8037,-2.85387 7.8037,-9.944 0,-6.85733 -4.8242,-9.85903 -7.8037,-9.94589 l 0,0 -18.903,0 c -0.022,-6.2e-4 0.023,0 0,0 z"
             style="fill:#ffffff;fill-opacity:1;stroke:#93b8ff;stroke-width:3.63655806;stroke-miterlimit:4;stroke-opacity:1;stroke-dasharray:none" />
          <path
             style="fill:#f3f7ff;fill-opacity:1;stroke:#74a3ff;stroke-width:3.63599992;stroke-miterlimit:4;stroke-opacity:1;stroke-dasharray:none"
             d="m 1187.3789,496.95897 c 0,7.09013 5.2166,9.944 8.2159,9.944 0.023,0 -0.022,5.7e-4 0,0 l 18.903,0 c 0.025,0 -0.025,7.5e-4 0,0 2.9795,-0.0869 7.8037,-2.85387 7.8037,-9.944"
             id="path6325"
             inkscape:connector-curvature="0"
             sodipodi:nodetypes="cscscc" />
        </g>
      </g>
    </g>
  </g>
</svg>
